<?xml version="1.0" encoding="UTF-8" standalone="no"?>
<!DOCTYPE svg PUBLIC "-//W3C//DTD SVG 1.1//EN" "http://www.w3.org/Graphics/SVG/1.1/DTD/svg11.dtd">
<!-- Created with Vectornator (http://vectornator.io/) -->
<svg height="100%" stroke-miterlimit="10" style="fill-rule:nonzero;clip-rule:evenodd;stroke-linecap:round;stroke-linejoin:round;" version="1.1" viewBox="0 0 1280 960" width="100%" xml:space="preserve" xmlns="http://www.w3.org/2000/svg" xmlns:vectornator="http://vectornator.io" xmlns:xlink="http://www.w3.org/1999/xlink">
<defs>
<filter color-interpolation-filters="sRGB" filterUnits="userSpaceOnUse" height="994.141" id="Filter" width="1231.43" x="-4.44682" y="3.38907">
<feDropShadow dx="-28.7342" dy="20.4598" flood-color="#ffffff" flood-opacity="0.4" in="SourceGraphic" result="Shadow" stdDeviation="17.8425"/>
</filter>
</defs>
<clipPath id="ArtboardFrame">
<rect height="960" width="1280" x="0" y="0"/>
</clipPath>
<g clip-path="url(#ArtboardFrame)" id="Layer-1" vectornator:layerName="Layer 1">
<g filter="url(#Filter)" vectornator:shadowAngle="2.52283" vectornator:shadowColor="#ffffff" vectornator:shadowOffset="35.274" vectornator:shadowOpacity="0.4" vectornator:shadowRadius="35.6849">
<path d="M815.404 324.183C814.163 324.176 812.855 324.486 811.504 324.91C811.437 324.931 811.376 324.953 811.306 324.976C793.255 330.671 775.983 338.057 759.481 346.724C737.162 360.288 786.625 415.692 763.976 438.342L740.51 461.809L717.043 485.275C694.437 507.882 639.19 458.649 625.491 480.648C625.468 480.692 625.444 480.737 625.424 480.78C616.803 497.197 609.486 514.39 603.809 532.341C603.794 532.388 603.754 532.426 603.743 532.473C594.928 558.902 671.498 562.751 671.498 595.271L671.498 628.388L671.498 661.638C671.498 694.158 594.929 697.941 603.743 724.37C603.757 724.417 603.791 724.452 603.809 724.502C609.234 741.643 616.189 758.067 624.301 773.815C624.355 773.779 624.377 773.722 624.433 773.683C636.281 800.011 693.868 747.463 717.043 770.642L740.51 794.109L763.976 817.575C787.151 840.75 734.611 898.332 760.935 910.185C760.813 910.383 760.609 910.463 760.473 910.648C776.61 919.051 793.489 926.17 811.108 931.735C811.2 931.767 811.28 931.771 811.372 931.801C837.681 940.317 841.505 864.045 873.972 864.045L907.155 864.045L940.405 864.045C972.844 864.046 976.674 940.165 1002.94 931.801C1002.96 931.794 1002.98 931.808 1003 931.801C1020.98 926.126 1038.18 918.809 1054.63 910.185C1054.66 910.172 1054.66 910.129 1054.7 910.119C1077.16 896.617 1027.6 841.167 1050.27 818.501L1073.73 794.968L1097.2 771.567C1119.91 748.858 1175.59 798.628 1188.95 775.864C1197.53 759.51 1204.77 742.377 1210.44 724.502C1210.52 724.267 1210.53 724.061 1210.57 723.841C1218.17 697.897 1142.74 693.873 1142.75 661.572L1142.75 628.388L1142.75 595.205C1142.75 563.585 1214.86 559.043 1210.77 534.522C1210.68 533.822 1210.69 533.151 1210.44 532.407C1204.42 513.397 1196.72 495.156 1187.43 477.872C1187.42 477.846 1187.38 477.832 1187.37 477.806C1187.35 477.793 1187.37 477.752 1187.37 477.74C1186.57 476.877 1185.62 476.252 1184.66 475.691C1166.33 465.211 1117.98 505.129 1097.2 484.35L1073.73 460.883L1050.27 437.351C1028.77 415.858 1072.29 364.868 1057.74 348.112C1040.3 338.721 1021.88 330.944 1002.67 324.91C976.625 317.043 972.686 392.731 940.339 392.731L907.155 392.731L873.972 392.731C843.246 392.731 838.163 324.302 815.404 324.183ZM907.089 476.153C990.94 476.154 1058.93 544.141 1058.93 627.992C1058.93 711.842 990.94 779.83 907.089 779.83C823.238 779.83 755.251 711.843 755.251 627.992C755.251 544.14 823.238 476.153 907.089 476.153ZM907.089 511.056C842.471 511.056 790.021 563.374 790.021 627.992C790.022 692.609 842.472 745.06 907.089 745.06C971.706 745.06 1024.03 692.609 1024.03 627.992C1024.03 563.374 971.707 511.056 907.089 511.056Z" fill="#ffffff" fill-opacity="0.333333" fill-rule="nonzero" opacity="1" stroke="none"/>
<path d="M243.796 57.5831C242.57 57.7799 241.33 58.2997 240.067 58.9387C240.005 58.9704 239.948 59.0027 239.882 59.0364C223.006 67.6086 207.176 77.7217 192.315 88.9722C172.517 106.006 230.38 152.569 211.743 178.62L192.433 205.611L173.124 232.601C154.522 258.602 91.9625 219.074 82.048 243.019C82.0325 243.066 82.0163 243.114 82.0044 243.16C76.1855 260.766 71.781 278.925 69.1181 297.563C69.1111 297.612 69.0784 297.656 69.0745 297.704C64.7041 325.219 140.872 316.486 146.194 348.567L151.613 381.238L157.055 414.04C162.376 446.121 87.4583 462.384 100.479 487.014C100.501 487.058 100.54 487.087 100.566 487.134C108.723 503.156 118.272 518.22 128.851 532.428C128.899 532.384 128.911 532.323 128.96 532.276C144.957 556.31 193.168 495.047 219.824 514.12L246.815 533.43L273.805 552.74C300.46 571.81 258.052 637.214 285.961 644.6C285.872 644.815 285.685 644.927 285.58 645.132C302.875 650.78 320.692 655.041 338.984 657.648C339.08 657.664 339.159 657.655 339.255 657.67C366.604 661.765 357.894 585.896 389.923 580.583L422.659 575.153L455.46 569.711C487.462 564.403 503.698 638.869 528.239 626.32C528.259 626.309 528.277 626.321 528.304 626.309C545.108 617.769 560.875 607.736 575.697 596.536C575.721 596.518 575.721 596.475 575.752 596.46C595.706 579.463 537.74 532.871 556.389 506.801L575.688 479.745L595.009 452.82C613.696 426.7 676.766 466.688 686.226 442.044C692.007 424.507 696.352 406.419 699.014 387.858C699.056 387.613 699.036 387.408 699.036 387.185C702.292 360.346 627.219 368.72 621.939 336.854L616.508 304.118L611.078 271.382C605.903 240.188 676.302 223.906 668.25 200.386C668.051 199.709 667.953 199.045 667.577 198.353C658.536 180.583 647.954 163.848 635.959 148.318C635.941 148.294 635.9 148.288 635.883 148.263C635.87 148.253 635.88 148.21 635.872 148.198C634.947 147.477 633.911 147.015 632.863 146.62C613.066 139.282 571.902 186.573 548.005 169.475L521.015 150.165L494.013 130.79C469.292 113.105 503.873 55.6806 486.778 41.5316C468.035 35.1216 448.592 30.4643 428.66 27.6536C401.674 24.1562 410.175 99.4684 378.264 104.762L345.528 110.193L312.791 115.623C282.48 120.651 266.267 53.9765 243.796 57.5831ZM359.115 192.501C441.835 178.779 520.032 234.723 533.755 317.444C547.477 400.163 491.532 478.361 408.812 492.084C326.091 505.806 247.894 449.861 234.172 367.141C220.449 284.42 276.394 206.223 359.115 192.501ZM364.826 226.933C301.08 237.507 257.898 297.704 268.473 361.451C279.049 425.197 339.375 468.357 403.122 457.782C466.867 447.208 509.898 386.902 499.323 323.155C488.748 259.409 428.573 216.358 364.826 226.933Z" fill="#ffffff" fill-opacity="0.333333" fill-rule="nonzero" opacity="1" stroke="none"/>
</g>
</g>
</svg>
