<?xml version="1.0" encoding="UTF-8" standalone="no"?>
<!DOCTYPE svg PUBLIC "-//W3C//DTD SVG 1.1//EN" "http://www.w3.org/Graphics/SVG/1.1/DTD/svg11.dtd">
<!-- Created with Vectornator (http://vectornator.io/) -->
<svg height="100%" stroke-miterlimit="10" style="fill-rule:nonzero;clip-rule:evenodd;stroke-linecap:round;stroke-linejoin:round;" version="1.1" viewBox="0 0 1920 1080" width="100%" xml:space="preserve" xmlns="http://www.w3.org/2000/svg" xmlns:vectornator="http://vectornator.io" xmlns:xlink="http://www.w3.org/1999/xlink">
<defs/>
<clipPath id="ArtboardFrame">
<rect height="1080" width="1920" x="0" y="0"/>
</clipPath>
<g clip-path="url(#ArtboardFrame)" id="Layer-1" vectornator:layerName="Layer 1">
<path d="M-171.095-146.151L1993.9-146.151L1993.9 1288.75L-171.095 1288.75L-171.095-146.151Z" fill="#141414" fill-rule="nonzero" opacity="0" stroke="none"/>
<path d="M1537.56 342.812L1535.17 353.16L1523.99 355.989L1535.11 357.118L1537.17 368.105L1539.53 356.345L1550.82 353.604L1539.39 352.568L1537.56 342.812Z" fill="#f1f1ef" fill-rule="nonzero" opacity="0.123077" stroke="none"/>
<path d="M1603.32 386.907L1600.93 397.255L1589.75 400.083L1600.86 401.213L1602.92 412.2L1605.29 400.439L1616.57 397.699L1605.14 396.663L1603.32 386.907Z" fill="#f1f1ef" fill-rule="nonzero" opacity="0.123077" stroke="none"/>
<path d="M1777.57 360.314L1775.18 370.662L1764 373.49L1775.12 374.62L1777.18 385.607L1779.54 373.847L1790.83 371.106L1779.39 370.07L1777.57 360.314Z" fill="#f1f1ef" fill-rule="nonzero" opacity="0.123077" stroke="none"/>
<path d="M1669.8 441.492L1667.41 451.84L1656.23 454.669L1667.34 455.798L1669.41 466.785L1671.77 455.025L1683.06 452.285L1671.62 451.248L1669.8 441.492Z" fill="#f1f1ef" fill-rule="nonzero" opacity="0.123077" stroke="none"/>
<path d="M1663.5 328.822L1661.11 339.17L1649.93 341.999L1661.05 343.128L1663.11 354.115L1665.47 342.355L1676.76 339.615L1665.32 338.578L1663.5 328.822Z" fill="#f1f1ef" fill-rule="nonzero" opacity="0.123077" stroke="none"/>
<path d="M1517.94 409.301L1515.55 419.649L1504.37 422.477L1515.48 423.607L1517.55 434.594L1519.91 422.833L1531.2 420.093L1519.76 419.057L1517.94 409.301Z" fill="#f1f1ef" fill-rule="nonzero" opacity="0.123077" stroke="none"/>
<path d="M1438.6 464.315L1436.21 474.663L1425.03 477.491L1436.14 478.621L1438.2 489.608L1440.57 477.847L1451.85 475.107L1440.42 474.071L1438.6 464.315Z" fill="#f1f1ef" fill-rule="nonzero" opacity="0.123077" stroke="none"/>
<path d="M1468.95 369.179L1466.57 379.527L1455.38 382.355L1466.5 383.485L1468.56 394.472L1470.92 382.712L1482.21 379.971L1470.78 378.935L1468.95 369.179Z" fill="#f1f1ef" fill-rule="nonzero" opacity="0.123077" stroke="none"/>
<path d="M1406.39 310.691L1404.01 321.039L1392.82 323.867L1403.94 324.997L1406 335.984L1408.36 324.224L1419.65 321.483L1408.22 320.447L1406.39 310.691Z" fill="#f1f1ef" fill-rule="nonzero" opacity="0.15" stroke="none"/>
<path d="M1359.38 415.081L1356.99 425.429L1345.81 428.257L1356.93 429.387L1358.99 440.374L1361.35 428.614L1372.64 425.873L1361.2 424.837L1359.38 415.081Z" fill="#f1f1ef" fill-rule="nonzero" opacity="0.15" stroke="none"/>
<path d="M1822.36 445.691L1819.97 456.039L1808.79 458.867L1819.9 459.997L1821.96 470.984L1824.33 459.224L1835.61 456.483L1824.18 455.447L1822.36 445.691Z" fill="#f1f1ef" fill-rule="nonzero" opacity="0.123077" stroke="none"/>
<path d="M1719.81 436.372L1721.7 427.675L1729.51 425.516L1721.83 424.332L1720.66 415.004L1718.75 424.894L1710.87 426.977L1718.77 428.089L1719.81 436.372Z" fill="#f1f1ef" fill-rule="nonzero" opacity="0.123077" stroke="none"/>
<path d="M1668.28 492.847L1670.17 484.151L1677.98 481.991L1670.31 480.807L1669.13 471.479L1667.22 481.369L1659.34 483.452L1667.24 484.564L1668.28 492.847Z" fill="#f1f1ef" fill-rule="nonzero" opacity="0.123077" stroke="none"/>
<path d="M1532.89 471.411L1531.6 478.149L1526.28 479.823L1531.51 480.74L1532.31 487.968L1533.61 480.305L1538.97 478.691L1533.59 477.829L1532.89 471.411Z" fill="#f1f1ef" fill-rule="nonzero" opacity="0.123077" stroke="none"/>
<path d="M1423.97 416.362L1422.68 423.101L1417.36 424.774L1422.59 425.691L1423.39 432.919L1424.69 425.256L1430.05 423.642L1424.67 422.78L1423.97 416.362Z" fill="#f1f1ef" fill-rule="nonzero" opacity="0.123077" stroke="none"/>
<path d="M1463.71 331.581L1462.42 338.32L1457.1 339.993L1462.33 340.911L1463.13 348.139L1464.43 340.475L1469.79 338.861L1464.42 338L1463.71 331.581Z" fill="#f1f1ef" fill-rule="nonzero" opacity="0.123077" stroke="none"/>
<path d="M1364.07 309.975L1362.78 316.713L1357.46 318.387L1362.69 319.304L1363.49 326.532L1364.79 318.869L1370.16 317.255L1364.78 316.393L1364.07 309.975Z" fill="#f1f1ef" fill-rule="nonzero" opacity="0.15" stroke="none"/>
<path d="M1269.69 426.068L1268.41 432.806L1263.09 434.479L1268.31 435.397L1269.12 442.625L1270.41 434.961L1275.78 433.347L1270.4 432.486L1269.69 426.068Z" fill="#f1f1ef" fill-rule="nonzero" opacity="0.15" stroke="none"/>
<path d="M1608.82 926.564L1607.53 933.302L1602.21 934.975L1607.44 935.893L1608.24 943.121L1609.54 935.457L1614.91 933.843L1609.53 932.982L1608.82 926.564Z" fill="#f1f1ef" fill-rule="nonzero" opacity="0.15" stroke="none"/>
<path d="M1288.43 507.956L1287.15 514.695L1281.83 516.368L1287.05 517.286L1287.85 524.514L1289.15 516.85L1294.52 515.236L1289.14 514.375L1288.43 507.956Z" fill="#f1f1ef" fill-rule="nonzero" opacity="0.15" stroke="none"/>
<path d="M1627.56 1008.45L1626.27 1015.19L1620.95 1016.86L1626.18 1017.78L1626.98 1025.01L1628.28 1017.35L1633.64 1015.73L1628.27 1014.87L1627.56 1008.45Z" fill="#f1f1ef" fill-rule="nonzero" opacity="0.15" stroke="none"/>
<path d="M1356.69 454.592L1355.41 461.33L1350.09 463.003L1355.31 463.921L1356.12 471.149L1357.41 463.485L1362.78 461.871L1357.4 461.01L1356.69 454.592Z" fill="#f1f1ef" fill-rule="nonzero" opacity="0.15" stroke="none"/>
<path d="M1301.44 366.046L1300.16 372.785L1294.84 374.458L1300.06 375.376L1300.87 382.604L1302.16 374.94L1307.53 373.326L1302.15 372.465L1301.44 366.046Z" fill="#f1f1ef" fill-rule="nonzero" opacity="0.15" stroke="none"/>
<path d="M1640.57 866.542L1639.28 873.281L1633.96 874.954L1639.19 875.872L1639.99 883.1L1641.29 875.436L1646.66 873.822L1641.28 872.961L1640.57 866.542Z" fill="#f1f1ef" fill-rule="nonzero" opacity="0.15" stroke="none"/>
<path d="M1194.07 454.274L1192.78 461.012L1187.46 462.686L1192.69 463.603L1193.49 470.831L1194.79 463.168L1200.16 461.554L1194.78 460.692L1194.07 454.274Z" fill="#f1f1ef" fill-rule="nonzero" opacity="0.15" stroke="none"/>
<path d="M1533.19 954.77L1531.91 961.508L1526.59 963.182L1531.81 964.099L1532.62 971.327L1533.91 963.664L1539.28 962.05L1533.9 961.188L1533.19 954.77Z" fill="#f1f1ef" fill-rule="nonzero" opacity="0.15" stroke="none"/>
<path d="M1155.5 359.871L1154.22 366.609L1148.9 368.282L1154.12 369.2L1154.93 376.428L1156.22 368.764L1161.59 367.15L1156.21 366.289L1155.5 359.871Z" fill="#f1f1ef" fill-rule="nonzero" opacity="0.15" stroke="none"/>
<path d="M1494.63 860.367L1493.34 867.105L1488.02 868.778L1493.25 869.696L1494.05 876.924L1495.35 869.26L1500.71 867.647L1495.34 866.785L1494.63 860.367Z" fill="#f1f1ef" fill-rule="nonzero" opacity="0.15" stroke="none"/>
<path d="M1246.79 299.341L1245.5 306.079L1240.18 307.752L1245.41 308.67L1246.21 315.898L1247.51 308.234L1252.88 306.62L1247.5 305.759L1246.79 299.341Z" fill="#f1f1ef" fill-rule="nonzero" opacity="0.15" stroke="none"/>
<path d="M1585.91 799.837L1584.62 806.575L1579.3 808.248L1584.53 809.166L1585.33 816.394L1586.63 808.73L1592 807.116L1586.62 806.255L1585.91 799.837Z" fill="#f1f1ef" fill-rule="nonzero" opacity="0.15" stroke="none"/>
<path d="M1318.86 244.544L1317.58 251.283L1312.26 252.956L1317.48 253.874L1318.29 261.102L1319.58 253.438L1324.95 251.824L1319.57 250.963L1318.86 244.544Z" fill="#f1f1ef" fill-rule="nonzero" opacity="0.15" stroke="none"/>
<path d="M1468.85 513.046L1466.22 524.985L1455.38 527.95L1466.03 529.576L1467.67 542.382L1470.32 528.804L1481.26 525.944L1470.29 524.418L1468.85 513.046Z" fill="#f1f1ef" fill-rule="nonzero" opacity="0.123077" stroke="none"/>
<path d="M860.683 868.029L858.059 879.969L847.21 882.933L857.869 884.559L859.505 897.366L862.15 883.787L873.096 880.927L862.129 879.401L860.683 868.029Z" fill="#f1f1ef" fill-rule="nonzero" opacity="0.123077" stroke="none"/>
<path d="M1603.32 386.907L1600.93 397.255L1589.75 400.083L1600.86 401.213L1602.92 412.2L1605.29 400.439L1616.57 397.699L1605.14 396.663L1603.32 386.907Z" fill="#f1f1ef" fill-rule="nonzero" opacity="0.123077" stroke="none"/>
<path d="M1669.8 441.492L1667.41 451.84L1656.23 454.669L1667.34 455.798L1669.41 466.785L1671.77 455.025L1683.06 452.285L1671.62 451.248L1669.8 441.492Z" fill="#f1f1ef" fill-rule="nonzero" opacity="0.123077" stroke="none"/>
<path d="M1663.5 328.822L1661.11 339.17L1649.93 341.999L1661.05 343.128L1663.11 354.115L1665.47 342.355L1676.76 339.615L1665.32 338.578L1663.5 328.822Z" fill="#f1f1ef" fill-rule="nonzero" opacity="0.123077" stroke="none"/>
<path d="M1517.94 409.301L1515.55 419.649L1504.37 422.477L1515.48 423.607L1517.55 434.594L1519.91 422.833L1531.2 420.093L1519.76 419.057L1517.94 409.301Z" fill="#f1f1ef" fill-rule="nonzero" opacity="0.123077" stroke="none"/>
<path d="M1438.6 464.315L1436.21 474.663L1425.03 477.491L1436.14 478.621L1438.2 489.608L1440.57 477.847L1451.85 475.107L1440.42 474.071L1438.6 464.315Z" fill="#f1f1ef" fill-rule="nonzero" opacity="0.123077" stroke="none"/>
<path d="M1468.95 369.179L1466.57 379.527L1455.38 382.355L1466.5 383.485L1468.56 394.472L1470.92 382.712L1482.21 379.971L1470.78 378.935L1468.95 369.179Z" fill="#f1f1ef" fill-rule="nonzero" opacity="0.123077" stroke="none"/>
<path d="M1406.39 310.691L1404.01 321.039L1392.82 323.867L1403.94 324.997L1406 335.984L1408.36 324.224L1419.65 321.483L1408.22 320.447L1406.39 310.691Z" fill="#f1f1ef" fill-rule="nonzero" opacity="0.15" stroke="none"/>
<path d="M1822.36 445.691L1819.97 456.039L1808.79 458.867L1819.9 459.997L1821.96 470.984L1824.33 459.224L1835.61 456.483L1824.18 455.447L1822.36 445.691Z" fill="#f1f1ef" fill-rule="nonzero" opacity="0.123077" stroke="none"/>
<path d="M1719.81 436.372L1721.7 427.675L1729.51 425.516L1721.83 424.332L1720.66 415.004L1718.75 424.894L1710.87 426.977L1718.77 428.089L1719.81 436.372Z" fill="#f1f1ef" fill-rule="nonzero" opacity="0.123077" stroke="none"/>
<path d="M1532.89 471.411L1531.6 478.149L1526.28 479.823L1531.51 480.74L1532.31 487.968L1533.61 480.305L1538.97 478.691L1533.59 477.829L1532.89 471.411Z" fill="#f1f1ef" fill-rule="nonzero" opacity="0.123077" stroke="none"/>
<path d="M1423.97 416.362L1422.68 423.101L1417.36 424.774L1422.59 425.691L1423.39 432.919L1424.69 425.256L1430.05 423.642L1424.67 422.78L1423.97 416.362Z" fill="#f1f1ef" fill-rule="nonzero" opacity="0.123077" stroke="none"/>
<path d="M1463.71 331.581L1462.42 338.32L1457.1 339.993L1462.33 340.911L1463.13 348.139L1464.43 340.475L1469.79 338.861L1464.42 338L1463.71 331.581Z" fill="#f1f1ef" fill-rule="nonzero" opacity="0.123077" stroke="none"/>
<path d="M1364.07 309.975L1362.78 316.713L1357.46 318.387L1362.69 319.304L1363.49 326.532L1364.79 318.869L1370.16 317.255L1364.78 316.393L1364.07 309.975Z" fill="#f1f1ef" fill-rule="nonzero" opacity="0.15" stroke="none"/>
<path d="M1269.69 426.068L1268.41 432.806L1263.09 434.479L1268.31 435.397L1269.12 442.625L1270.41 434.961L1275.78 433.347L1270.4 432.486L1269.69 426.068Z" fill="#f1f1ef" fill-rule="nonzero" opacity="0.15" stroke="none"/>
<path d="M1608.82 926.564L1607.53 933.302L1602.21 934.975L1607.44 935.893L1608.24 943.121L1609.54 935.457L1614.91 933.843L1609.53 932.982L1608.82 926.564Z" fill="#f1f1ef" fill-rule="nonzero" opacity="0.15" stroke="none"/>
<path d="M1288.43 507.956L1287.15 514.695L1281.83 516.368L1287.05 517.286L1287.85 524.514L1289.15 516.85L1294.52 515.236L1289.14 514.375L1288.43 507.956Z" fill="#f1f1ef" fill-rule="nonzero" opacity="0.15" stroke="none"/>
<path d="M1627.56 1008.45L1626.27 1015.19L1620.95 1016.86L1626.18 1017.78L1626.98 1025.01L1628.28 1017.35L1633.64 1015.73L1628.27 1014.87L1627.56 1008.45Z" fill="#f1f1ef" fill-rule="nonzero" opacity="0.15" stroke="none"/>
<path d="M1356.69 454.592L1355.41 461.33L1350.09 463.003L1355.31 463.921L1356.12 471.149L1357.41 463.485L1362.78 461.871L1357.4 461.01L1356.69 454.592Z" fill="#f1f1ef" fill-rule="nonzero" opacity="0.15" stroke="none"/>
<path d="M1301.44 366.046L1300.16 372.785L1294.84 374.458L1300.06 375.376L1300.87 382.604L1302.16 374.94L1307.53 373.326L1302.15 372.465L1301.44 366.046Z" fill="#f1f1ef" fill-rule="nonzero" opacity="0.15" stroke="none"/>
<path d="M1640.57 866.542L1639.28 873.281L1633.96 874.954L1639.19 875.872L1639.99 883.1L1641.29 875.436L1646.66 873.822L1641.28 872.961L1640.57 866.542Z" fill="#f1f1ef" fill-rule="nonzero" opacity="0.15" stroke="none"/>
<path d="M1194.07 454.274L1192.78 461.012L1187.46 462.686L1192.69 463.603L1193.49 470.831L1194.79 463.168L1200.16 461.554L1194.78 460.692L1194.07 454.274Z" fill="#f1f1ef" fill-rule="nonzero" opacity="0.15" stroke="none"/>
<path d="M1533.19 954.77L1531.91 961.508L1526.59 963.182L1531.81 964.099L1532.62 971.327L1533.91 963.664L1539.28 962.05L1533.9 961.188L1533.19 954.77Z" fill="#f1f1ef" fill-rule="nonzero" opacity="0.15" stroke="none"/>
<path d="M1246.79 299.341L1245.5 306.079L1240.18 307.752L1245.41 308.67L1246.21 315.898L1247.51 308.234L1252.88 306.62L1247.5 305.759L1246.79 299.341Z" fill="#f1f1ef" fill-rule="nonzero" opacity="0.15" stroke="none"/>
<path d="M1585.91 799.837L1584.62 806.575L1579.3 808.248L1584.53 809.166L1585.33 816.394L1586.63 808.73L1592 807.116L1586.62 806.255L1585.91 799.837Z" fill="#f1f1ef" fill-rule="nonzero" opacity="0.15" stroke="none"/>
<path d="M1318.86 244.544L1317.58 251.283L1312.26 252.956L1317.48 253.874L1318.29 261.102L1319.58 253.438L1324.95 251.824L1319.57 250.963L1318.86 244.544Z" fill="#f1f1ef" fill-rule="nonzero" opacity="0.15" stroke="none"/>
<path d="M1468.85 513.046L1466.22 524.985L1455.38 527.95L1466.03 529.576L1467.67 542.382L1470.32 528.804L1481.26 525.944L1470.29 524.418L1468.85 513.046Z" fill="#f1f1ef" fill-rule="nonzero" opacity="0.123077" stroke="none"/>
<path d="M860.683 868.029L858.059 879.969L847.21 882.933L857.869 884.559L859.505 897.366L862.15 883.787L873.096 880.927L862.129 879.401L860.683 868.029Z" fill="#f1f1ef" fill-rule="nonzero" opacity="0.123077" stroke="none"/>
<path d="M951.968 300.608L949.58 310.956L938.397 313.784L949.512 314.914L951.573 325.901L953.936 314.141L965.223 311.4L953.79 310.364L951.968 300.608Z" fill="#f1f1ef" fill-rule="nonzero" opacity="0.198077" stroke="none"/>
<path d="M1017.72 344.702L1015.33 355.05L1004.15 357.879L1015.27 359.008L1017.33 369.995L1019.69 358.235L1030.98 355.495L1019.55 354.459L1017.72 344.702Z" fill="#f1f1ef" fill-rule="nonzero" opacity="0.15" stroke="none"/>
<path d="M1356.85 845.198L1354.46 855.547L1343.28 858.375L1354.39 859.504L1356.45 870.491L1358.82 858.731L1370.1 855.991L1358.67 854.955L1356.85 845.198Z" fill="#f1f1ef" fill-rule="nonzero" opacity="0.15" stroke="none"/>
<path d="M1077.91 286.618L1075.52 296.966L1064.34 299.794L1075.45 300.924L1077.51 311.911L1079.88 300.151L1091.16 297.41L1079.73 296.374L1077.91 286.618Z" fill="#f1f1ef" fill-rule="nonzero" opacity="0.15" stroke="none"/>
<path d="M1417.03 787.114L1414.64 797.462L1403.46 800.29L1414.58 801.42L1416.64 812.407L1419 800.647L1430.29 797.906L1418.85 796.87L1417.03 787.114Z" fill="#f1f1ef" fill-rule="nonzero" opacity="0.15" stroke="none"/>
<path d="M932.346 367.096L929.957 377.445L918.775 380.273L929.89 381.402L931.951 392.389L934.314 380.629L945.601 377.889L934.168 376.853L932.346 367.096Z" fill="#f1f1ef" fill-rule="nonzero" opacity="0.198077" stroke="none"/>
<path d="M1030.32 490.963L1027.93 501.311L1016.75 504.14L1027.86 505.269L1029.92 516.256L1032.29 504.496L1043.57 501.756L1032.14 500.72L1030.32 490.963Z" fill="#f1f1ef" fill-rule="nonzero" opacity="0.15" stroke="none"/>
<path d="M1369.44 991.459L1367.06 1001.81L1355.87 1004.64L1366.99 1005.77L1369.05 1016.75L1371.41 1004.99L1382.7 1002.25L1371.27 1001.22L1369.44 991.459Z" fill="#f1f1ef" fill-rule="nonzero" opacity="0.15" stroke="none"/>
<path d="M853.005 422.11L850.616 432.458L839.434 435.287L850.549 436.416L852.61 447.403L854.973 435.643L866.26 432.903L854.827 431.867L853.005 422.11Z" fill="#f1f1ef" fill-rule="nonzero" opacity="0.169231" stroke="none"/>
<path d="M1472.1 77.1408L1469.71 87.4889L1458.53 90.3171L1469.64 91.4468L1471.7 102.434L1474.07 90.6735L1485.35 87.9331L1473.92 86.897L1472.1 77.1408Z" fill="#f1f1ef" fill-rule="nonzero" opacity="0.169231" stroke="none"/>
<path d="M883.359 326.975L880.971 337.323L869.788 340.151L880.903 341.281L882.964 352.268L885.327 340.507L896.614 337.767L885.182 336.731L883.359 326.975Z" fill="#f1f1ef" fill-rule="nonzero" opacity="0.169231" stroke="none"/>
<path d="M820.799 268.487L818.411 278.835L807.228 281.663L818.343 282.793L820.404 293.78L822.768 282.019L834.054 279.279L822.622 278.243L820.799 268.487Z" fill="#f1f1ef" fill-rule="nonzero" opacity="0.169231" stroke="none"/>
<path d="M1659.84 46.3566L1657.45 56.7047L1646.27 59.533L1657.39 60.6626L1659.45 71.6497L1661.81 59.8893L1673.1 57.149L1661.66 56.1128L1659.84 46.3566Z" fill="#f1f1ef" fill-rule="nonzero" opacity="0.169231" stroke="none"/>
<path d="M773.787 372.877L771.398 383.225L760.216 386.053L771.331 387.183L773.392 398.17L775.755 386.409L787.042 383.669L775.609 382.633L773.787 372.877Z" fill="#f1f1ef" fill-rule="nonzero" opacity="0.169231" stroke="none"/>
<path d="M1392.88 27.9072L1390.49 38.2553L1379.31 41.0835L1390.42 42.2132L1392.49 53.2002L1394.85 41.4399L1406.14 38.6995L1394.7 37.6634L1392.88 27.9072Z" fill="#f1f1ef" fill-rule="nonzero" opacity="0.169231" stroke="none"/>
<path d="M1855.57 1004.24L1853.18 1014.59L1842 1017.42L1853.12 1018.55L1855.18 1029.53L1857.54 1017.77L1868.83 1015.03L1857.39 1014L1855.57 1004.24Z" fill="#f1f1ef" fill-rule="nonzero" opacity="0.169231" stroke="none"/>
<path d="M1308.86 845.781L1306.47 856.129L1295.29 858.957L1306.41 860.087L1308.47 871.074L1310.83 859.314L1322.12 856.573L1310.68 855.537L1308.86 845.781Z" fill="#f1f1ef" fill-rule="nonzero" opacity="0.169231" stroke="none"/>
<path d="M1236.76 403.487L1234.38 413.835L1223.19 416.663L1234.31 417.793L1236.37 428.78L1238.73 417.019L1250.02 414.279L1238.59 413.243L1236.76 403.487Z" fill="#f1f1ef" fill-rule="nonzero" opacity="0.15" stroke="none"/>
<path d="M1575.89 903.983L1573.5 914.331L1562.32 917.159L1573.43 918.289L1575.49 929.276L1577.86 917.515L1589.14 914.775L1577.71 913.739L1575.89 903.983Z" fill="#f1f1ef" fill-rule="nonzero" opacity="0.15" stroke="none"/>
<path d="M1509.46 909.844L1506.27 924.199L1491.35 928.122L1506.18 929.689L1508.93 944.93L1512.08 928.616L1527.14 924.815L1511.89 923.378L1509.46 909.844Z" fill="#f1f1ef" fill-rule="nonzero" opacity="0.15" stroke="none"/>
<path d="M1134.21 394.167L1136.1 385.471L1143.91 383.312L1136.24 382.127L1135.06 372.799L1133.16 382.69L1125.28 384.772L1133.17 385.884L1134.21 394.167Z" fill="#f1f1ef" fill-rule="nonzero" opacity="0.15" stroke="none"/>
<path d="M1473.34 894.663L1475.23 885.967L1483.04 883.808L1475.36 882.624L1474.19 873.295L1472.28 883.186L1464.4 885.269L1472.3 886.38L1473.34 894.663Z" fill="#f1f1ef" fill-rule="nonzero" opacity="0.15" stroke="none"/>
<path d="M1082.68 450.642L1084.57 441.946L1092.38 439.787L1084.71 438.603L1083.53 429.275L1081.63 439.165L1073.75 441.248L1081.64 442.36L1082.68 450.642Z" fill="#f1f1ef" fill-rule="nonzero" opacity="0.15" stroke="none"/>
<path d="M1421.81 951.139L1423.7 942.442L1431.51 940.283L1423.84 939.099L1422.66 929.771L1420.75 939.661L1412.87 941.744L1420.77 942.856L1421.81 951.139Z" fill="#f1f1ef" fill-rule="nonzero" opacity="0.15" stroke="none"/>
<path d="M947.291 429.207L946.004 435.945L940.684 437.618L945.911 438.536L946.713 445.764L948.01 438.1L953.378 436.486L948 435.625L947.291 429.207Z" fill="#f1f1ef" fill-rule="nonzero" opacity="0.198077" stroke="none"/>
<path d="M838.371 374.158L837.084 380.896L831.764 382.57L836.991 383.487L837.793 390.715L839.09 383.052L844.459 381.438L839.08 380.576L838.371 374.158Z" fill="#f1f1ef" fill-rule="nonzero" opacity="0.169231" stroke="none"/>
<path d="M1457.47 29.1884L1456.18 35.9268L1450.86 37.5999L1456.08 38.5175L1456.89 45.7455L1458.18 38.082L1463.55 36.468L1458.17 35.6065L1457.47 29.1884Z" fill="#f1f1ef" fill-rule="nonzero" opacity="0.169231" stroke="none"/>
<path d="M878.112 289.377L876.825 296.115L871.505 297.789L876.732 298.706L877.534 305.934L878.832 298.271L884.2 296.657L878.821 295.795L878.112 289.377Z" fill="#f1f1ef" fill-rule="nonzero" opacity="0.169231" stroke="none"/>
<path d="M778.475 267.771L777.188 274.509L771.867 276.182L777.095 277.1L777.897 284.328L779.194 276.664L784.562 275.05L779.184 274.189L778.475 267.771Z" fill="#f1f1ef" fill-rule="nonzero" opacity="0.169231" stroke="none"/>
<path d="M1860.26 899.133L1858.97 905.871L1853.65 907.544L1858.88 908.462L1859.68 915.69L1860.98 908.026L1866.35 906.413L1860.97 905.551L1860.26 899.133Z" fill="#f1f1ef" fill-rule="nonzero" opacity="0.169231" stroke="none"/>
<path d="M684.099 383.863L682.812 390.602L677.492 392.275L682.719 393.192L683.521 400.42L684.819 392.757L690.187 391.143L684.808 390.281L684.099 383.863Z" fill="#f1f1ef" fill-rule="nonzero" opacity="0.169231" stroke="none"/>
<path d="M1303.19 38.8936L1301.91 45.632L1296.59 47.3052L1301.81 48.2228L1302.62 55.4508L1303.91 47.7872L1309.28 46.1732L1303.9 45.3118L1303.19 38.8936Z" fill="#f1f1ef" fill-rule="nonzero" opacity="0.169231" stroke="none"/>
<path d="M1765.88 1015.23L1764.6 1021.96L1759.28 1023.64L1764.5 1024.55L1765.31 1031.78L1766.6 1024.12L1771.97 1022.51L1766.59 1021.64L1765.88 1015.23Z" fill="#f1f1ef" fill-rule="nonzero" opacity="0.169231" stroke="none"/>
<path d="M1219.18 856.767L1217.89 863.506L1212.57 865.179L1217.79 866.097L1218.6 873.325L1219.89 865.661L1225.26 864.047L1219.88 863.186L1219.18 856.767Z" fill="#f1f1ef" fill-rule="nonzero" opacity="0.169231" stroke="none"/>
<path d="M702.838 465.752L701.551 472.491L696.231 474.164L701.458 475.081L702.26 482.309L703.557 474.646L708.925 473.032L703.547 472.17L702.838 465.752Z" fill="#f1f1ef" fill-rule="nonzero" opacity="0.169231" stroke="none"/>
<path d="M1321.93 120.783L1320.64 127.521L1315.32 129.194L1320.55 130.112L1321.35 137.34L1322.65 129.676L1328.02 128.062L1322.64 127.201L1321.93 120.783Z" fill="#f1f1ef" fill-rule="nonzero" opacity="0.169231" stroke="none"/>
<path d="M1843.44 20.9427L1842.15 27.6811L1836.83 29.3543L1842.06 30.2719L1842.86 37.4999L1844.16 29.8363L1849.53 28.2224L1844.15 27.3609L1843.44 20.9427Z" fill="#f1f1ef" fill-rule="nonzero" opacity="0.169231" stroke="none"/>
<path d="M1237.91 938.656L1236.63 945.395L1231.31 947.068L1236.53 947.985L1237.34 955.213L1238.63 947.55L1244 945.936L1238.62 945.074L1237.91 938.656Z" fill="#f1f1ef" fill-rule="nonzero" opacity="0.169231" stroke="none"/>
<path d="M715.849 323.842L714.562 330.58L709.242 332.254L714.469 333.171L715.271 340.399L716.568 332.736L721.936 331.122L716.558 330.26L715.849 323.842Z" fill="#f1f1ef" fill-rule="nonzero" opacity="0.169231" stroke="none"/>
<path d="M1554.89 101.712L1553.61 108.45L1548.28 110.124L1553.51 111.041L1554.31 118.269L1555.61 110.606L1560.98 108.992L1555.6 108.13L1554.89 101.712Z" fill="#f1f1ef" fill-rule="nonzero" opacity="0.169231" stroke="none"/>
<path d="M1797.63 955.204L1796.35 961.943L1791.03 963.616L1796.25 964.534L1797.06 971.762L1798.35 964.098L1803.72 962.484L1798.34 961.623L1797.63 955.204Z" fill="#f1f1ef" fill-rule="nonzero" opacity="0.169231" stroke="none"/>
<path d="M1250.92 796.746L1249.64 803.485L1244.32 805.158L1249.54 806.075L1250.35 813.303L1251.64 805.64L1257.01 804.026L1251.63 803.164L1250.92 796.746Z" fill="#f1f1ef" fill-rule="nonzero" opacity="0.169231" stroke="none"/>
<path d="M608.475 412.07L607.187 418.808L601.867 420.481L607.094 421.399L607.897 428.627L609.194 420.963L614.562 419.349L609.183 418.488L608.475 412.07Z" fill="#f1f1ef" fill-rule="nonzero" opacity="0.169231" stroke="none"/>
<path d="M1227.57 67.1L1226.28 73.8384L1220.96 75.5116L1226.19 76.4292L1226.99 83.6572L1228.29 75.9936L1233.66 74.3796L1228.28 73.5182L1227.57 67.1Z" fill="#f1f1ef" fill-rule="nonzero" opacity="0.169231" stroke="none"/>
<path d="M1143.55 884.974L1142.26 891.712L1136.94 893.385L1142.17 894.303L1142.97 901.531L1144.27 893.867L1149.64 892.253L1144.26 891.392L1143.55 884.974Z" fill="#f1f1ef" fill-rule="nonzero" opacity="0.169231" stroke="none"/>
<path d="M569.908 317.666L568.621 324.405L563.301 326.078L568.528 326.996L569.33 334.224L570.627 326.56L575.996 324.946L570.617 324.085L569.908 317.666Z" fill="#f1f1ef" fill-rule="nonzero" opacity="0.169231" stroke="none"/>
<path d="M1104.98 790.571L1103.7 797.309L1098.38 798.982L1103.6 799.9L1104.41 807.128L1105.7 799.464L1111.07 797.85L1105.69 796.989L1104.98 790.571Z" fill="#f1f1ef" fill-rule="nonzero" opacity="0.169231" stroke="none"/>
<path d="M661.193 257.136L659.906 263.875L654.586 265.548L659.813 266.466L660.615 273.694L661.912 266.03L667.28 264.416L661.902 263.555L661.193 257.136Z" fill="#f1f1ef" fill-rule="nonzero" opacity="0.169231" stroke="none"/>
<path d="M1742.98 888.499L1741.69 895.237L1736.37 896.91L1741.6 897.828L1742.4 905.056L1743.7 897.392L1749.06 895.778L1743.69 894.917L1742.98 888.499Z" fill="#f1f1ef" fill-rule="nonzero" opacity="0.169231" stroke="none"/>
<path d="M733.27 202.34L731.982 209.078L726.662 210.752L731.889 211.669L732.692 218.897L733.989 211.234L739.357 209.62L733.978 208.758L733.27 202.34Z" fill="#f1f1ef" fill-rule="nonzero" opacity="0.169231" stroke="none"/>
<path d="M637.723 350.786L635.335 361.134L624.152 363.962L635.267 365.092L637.328 376.079L639.691 364.319L650.978 361.578L639.545 360.542L637.723 350.786Z" fill="#f1f1ef" fill-rule="nonzero" opacity="0.169231" stroke="none"/>
<path d="M1256.82 5.81644L1254.43 16.1646L1243.25 18.9928L1254.36 20.1224L1256.42 31.1095L1258.79 19.3492L1270.07 16.6088L1258.64 15.5727L1256.82 5.81644Z" fill="#f1f1ef" fill-rule="nonzero" opacity="0.169231" stroke="none"/>
<path d="M1719.51 982.148L1717.12 992.496L1705.94 995.325L1717.05 996.454L1719.11 1007.44L1721.48 995.681L1732.76 992.941L1721.33 991.905L1719.51 982.148Z" fill="#f1f1ef" fill-rule="nonzero" opacity="0.169231" stroke="none"/>
<path d="M1172.8 823.69L1170.41 834.038L1159.23 836.867L1170.34 837.996L1172.4 848.983L1174.77 837.223L1186.05 834.483L1174.62 833.446L1172.8 823.69Z" fill="#f1f1ef" fill-rule="nonzero" opacity="0.169231" stroke="none"/>
<path d="M704.205 405.371L701.817 415.72L690.634 418.548L701.749 419.677L703.81 430.665L706.174 418.904L717.461 416.164L706.028 415.128L704.205 405.371Z" fill="#f1f1ef" fill-rule="nonzero" opacity="0.169231" stroke="none"/>
<path d="M1323.3 60.4019L1320.91 70.75L1309.73 73.5783L1320.84 74.7079L1322.9 85.6949L1325.27 73.9346L1336.55 71.1943L1325.12 70.1581L1323.3 60.4019Z" fill="#f1f1ef" fill-rule="nonzero" opacity="0.169231" stroke="none"/>
<path d="M1785.99 1036.73L1783.6 1047.08L1772.42 1049.91L1783.53 1051.04L1785.59 1062.03L1787.96 1050.27L1799.24 1047.53L1787.81 1046.49L1785.99 1036.73Z" fill="#f1f1ef" fill-rule="nonzero" opacity="0.169231" stroke="none"/>
<path d="M1239.28 878.276L1236.89 888.624L1225.71 891.452L1236.82 892.582L1238.89 903.569L1241.25 891.808L1252.54 889.068L1241.1 888.032L1239.28 878.276Z" fill="#f1f1ef" fill-rule="nonzero" opacity="0.169231" stroke="none"/>
<path d="M697.907 292.701L695.519 303.05L684.336 305.878L695.451 307.007L697.512 317.995L699.875 306.234L711.162 303.494L699.729 302.458L697.907 292.701Z" fill="#f1f1ef" fill-rule="nonzero" opacity="0.169231" stroke="none"/>
<path d="M1536.95 70.5714L1534.56 80.9196L1523.38 83.7478L1534.49 84.8774L1536.56 95.8645L1538.92 84.1042L1550.21 81.3638L1538.77 80.3276L1536.95 70.5714Z" fill="#f1f1ef" fill-rule="nonzero" opacity="0.169231" stroke="none"/>
<path d="M1779.69 924.064L1777.3 934.412L1766.12 937.24L1777.24 938.37L1779.3 949.357L1781.66 937.597L1792.95 934.856L1781.51 933.82L1779.69 924.064Z" fill="#f1f1ef" fill-rule="nonzero" opacity="0.169231" stroke="none"/>
<path d="M552.346 373.18L549.957 383.528L538.775 386.356L549.89 387.486L551.951 398.473L554.314 386.713L565.601 383.972L554.168 382.936L552.346 373.18Z" fill="#f1f1ef" fill-rule="nonzero" opacity="0.169231" stroke="none"/>
<path d="M1087.42 846.084L1085.03 856.432L1073.85 859.261L1084.97 860.39L1087.03 871.377L1089.39 859.617L1100.68 856.877L1089.24 855.84L1087.42 846.084Z" fill="#f1f1ef" fill-rule="nonzero" opacity="0.169231" stroke="none"/>
<path d="M650.32 497.047L647.931 507.395L636.749 510.223L647.864 511.353L649.925 522.34L652.288 510.58L663.575 507.839L652.142 506.803L650.32 497.047Z" fill="#f1f1ef" fill-rule="nonzero" opacity="0.169231" stroke="none"/>
<path d="M1269.41 152.077L1267.03 162.426L1255.84 165.254L1266.96 166.383L1269.02 177.371L1271.38 165.61L1282.67 162.87L1271.24 161.834L1269.41 152.077Z" fill="#f1f1ef" fill-rule="nonzero" opacity="0.169231" stroke="none"/>
<path d="M1790.92 52.2376L1788.54 62.5858L1777.35 65.414L1788.47 66.5436L1790.53 77.5307L1792.89 65.7704L1804.18 63.03L1792.75 61.9939L1790.92 52.2376Z" fill="#f1f1ef" fill-rule="nonzero" opacity="0.169231" stroke="none"/>
<path d="M1185.4 969.951L1183.01 980.299L1171.82 983.128L1182.94 984.257L1185 995.244L1187.36 983.484L1198.65 980.744L1187.22 979.707L1185.4 969.951Z" fill="#f1f1ef" fill-rule="nonzero" opacity="0.169231" stroke="none"/>
<path d="M473.005 428.194L470.616 438.542L459.434 441.37L470.549 442.5L472.61 453.487L474.973 441.727L486.26 438.986L474.827 437.95L473.005 428.194Z" fill="#f1f1ef" fill-rule="nonzero" opacity="0.198077" stroke="none"/>
<path d="M1008.08 901.098L1005.69 911.446L994.509 914.275L1005.62 915.404L1007.69 926.391L1010.05 914.631L1021.34 911.891L1009.9 910.854L1008.08 901.098Z" fill="#f1f1ef" fill-rule="nonzero" opacity="0.198077" stroke="none"/>
<path d="M503.359 333.058L500.971 343.407L489.788 346.235L500.903 347.364L502.964 358.351L505.327 346.591L516.614 343.851L505.182 342.815L503.359 333.058Z" fill="#f1f1ef" fill-rule="nonzero" opacity="0.169231" stroke="none"/>
<path d="M1038.43 805.963L1036.05 816.311L1024.86 819.139L1035.98 820.269L1038.04 831.256L1040.4 819.495L1051.69 816.755L1040.26 815.719L1038.43 805.963Z" fill="#f1f1ef" fill-rule="nonzero" opacity="0.169231" stroke="none"/>
<path d="M440.799 274.57L438.411 284.919L427.228 287.747L438.343 288.876L440.404 299.863L442.768 288.103L454.054 285.363L442.622 284.327L440.799 274.57Z" fill="#f1f1ef" fill-rule="nonzero" opacity="0.198077" stroke="none"/>
<path d="M997.722 52.9001L995.334 63.2482L984.151 66.0764L995.266 67.2061L997.327 78.1931L999.69 66.4328L1010.98 63.6924L999.545 62.6563L997.722 52.9001Z" fill="#f1f1ef" fill-rule="nonzero" opacity="0.198077" stroke="none"/>
<path d="M393.787 378.96L391.398 389.309L380.216 392.137L391.331 393.266L393.392 404.253L395.755 392.493L407.042 389.753L395.609 388.717L393.787 378.96Z" fill="#f1f1ef" fill-rule="nonzero" opacity="0.198077" stroke="none"/>
<path d="M713.425 47.808L711.037 58.1561L699.854 60.9844L710.969 62.114L713.03 73.101L715.393 61.3407L726.68 58.6003L715.248 57.5642L713.425 47.808Z" fill="#f1f1ef" fill-rule="nonzero" opacity="0.198077" stroke="none"/>
<path d="M928.862 851.865L926.474 862.213L915.291 865.041L926.406 866.171L928.467 877.158L930.831 865.397L942.118 862.657L930.685 861.621L928.862 851.865Z" fill="#f1f1ef" fill-rule="nonzero" opacity="0.198077" stroke="none"/>
<path d="M790.333 415.432L787.146 429.786L772.225 433.71L787.056 435.277L789.806 450.518L792.959 434.204L808.02 430.403L792.765 428.965L790.333 415.432Z" fill="#f1f1ef" fill-rule="nonzero" opacity="0.169231" stroke="none"/>
<path d="M1872.12 1046.79L1868.93 1061.15L1854.01 1065.07L1868.84 1066.64L1871.59 1081.88L1874.74 1065.57L1889.8 1061.76L1874.55 1060.33L1872.12 1046.79Z" fill="#f1f1ef" fill-rule="nonzero" opacity="0.169231" stroke="none"/>
<path d="M567.291 435.29L566.004 442.029L560.684 443.702L565.911 444.619L566.713 451.847L568.01 444.184L573.378 442.57L568 441.708L567.291 435.29Z" fill="#f1f1ef" fill-rule="nonzero" opacity="0.169231" stroke="none"/>
<path d="M1102.37 908.194L1101.08 914.933L1095.76 916.606L1100.99 917.524L1101.79 924.752L1103.09 917.088L1108.45 915.474L1103.08 914.613L1102.37 908.194Z" fill="#f1f1ef" fill-rule="nonzero" opacity="0.169231" stroke="none"/>
<path d="M458.371 380.242L457.084 386.98L451.764 388.653L456.991 389.571L457.793 396.799L459.09 389.135L464.459 387.521L459.08 386.66L458.371 380.242Z" fill="#f1f1ef" fill-rule="nonzero" opacity="0.198077" stroke="none"/>
<path d="M993.447 853.146L992.16 859.884L986.839 861.557L992.067 862.475L992.869 869.703L994.166 862.039L999.534 860.425L994.156 859.564L993.447 853.146Z" fill="#f1f1ef" fill-rule="nonzero" opacity="0.198077" stroke="none"/>
<path d="M498.112 295.461L496.825 302.199L491.505 303.872L496.732 304.79L497.534 312.018L498.832 304.354L504.2 302.74L498.821 301.879L498.112 295.461Z" fill="#f1f1ef" fill-rule="nonzero" opacity="0.169231" stroke="none"/>
<path d="M398.475 273.854L397.188 280.593L391.867 282.266L397.095 283.183L397.897 290.411L399.194 282.748L404.562 281.134L399.184 280.272L398.475 273.854Z" fill="#f1f1ef" fill-rule="nonzero" opacity="0.198077" stroke="none"/>
<path d="M955.398 52.184L954.111 58.9224L948.79 60.5955L954.017 61.5131L954.82 68.7411L956.117 61.0776L961.485 59.4636L956.107 58.6021L955.398 52.184Z" fill="#f1f1ef" fill-rule="nonzero" opacity="0.198077" stroke="none"/>
<path d="M304.099 389.947L302.812 396.685L297.492 398.358L302.719 399.276L303.521 406.504L304.819 398.84L310.187 397.226L304.808 396.365L304.099 389.947Z" fill="#f1f1ef" fill-rule="nonzero" opacity="0.198077" stroke="none"/>
<path d="M623.738 58.7944L622.451 65.5328L617.13 67.206L622.357 68.1236L623.16 75.3516L624.457 67.688L629.825 66.074L624.447 65.2126L623.738 58.7944Z" fill="#f1f1ef" fill-rule="nonzero" opacity="0.198077" stroke="none"/>
<path d="M322.838 471.836L321.551 478.574L316.231 480.247L321.458 481.165L322.26 488.393L323.557 480.729L328.925 479.115L323.547 478.254L322.838 471.836Z" fill="#f1f1ef" fill-rule="nonzero" opacity="0.198077" stroke="none"/>
<path d="M391.099 418.471L389.812 425.209L384.492 426.882L389.719 427.8L390.521 435.028L391.819 427.364L397.187 425.75L391.808 424.889L391.099 418.471Z" fill="#f1f1ef" fill-rule="nonzero" opacity="0.198077" stroke="none"/>
<path d="M926.175 891.375L924.888 898.113L919.568 899.787L924.795 900.704L925.597 907.932L926.894 900.269L932.262 898.655L926.884 897.793L926.175 891.375Z" fill="#f1f1ef" fill-rule="nonzero" opacity="0.198077" stroke="none"/>
<path d="M335.849 329.926L334.562 336.664L329.242 338.337L334.469 339.255L335.271 346.483L336.568 338.819L341.936 337.205L336.558 336.344L335.849 329.926Z" fill="#f1f1ef" fill-rule="nonzero" opacity="0.198077" stroke="none"/>
<path d="M655.488-1.22671L654.2 5.51171L648.88 7.18487L654.107 8.10247L654.91 15.3305L656.207 7.66689L661.575 6.05292L656.196 5.19146L655.488-1.22671Z" fill="#f1f1ef" fill-rule="nonzero" opacity="0.198077" stroke="none"/>
<path d="M228.475 418.153L227.187 424.892L221.867 426.565L227.094 427.482L227.897 434.71L229.194 427.047L234.562 425.433L229.183 424.571L228.475 418.153Z" fill="#f1f1ef" fill-rule="nonzero" opacity="0.198077" stroke="none"/>
<path d="M189.908 323.75L188.621 330.489L183.301 332.162L188.528 333.079L189.33 340.307L190.627 332.644L195.996 331.03L190.617 330.168L189.908 323.75Z" fill="#f1f1ef" fill-rule="nonzero" opacity="0.198077" stroke="none"/>
<path d="M281.193 263.22L279.906 269.958L274.586 271.632L279.813 272.549L280.615 279.777L281.912 272.114L287.28 270.5L281.902 269.638L281.193 263.22Z" fill="#f1f1ef" fill-rule="nonzero" opacity="0.198077" stroke="none"/>
<path d="M838.116 41.5498L836.829 48.2882L831.508 49.9614L836.736 50.879L837.538 58.107L838.835 50.4434L844.203 48.8294L838.825 47.9679L838.116 41.5498Z" fill="#f1f1ef" fill-rule="nonzero" opacity="0.198077" stroke="none"/>
<path d="M353.27 208.424L351.982 215.162L346.662 216.835L351.889 217.753L352.692 224.981L353.989 217.317L359.357 215.703L353.978 214.842L353.27 208.424Z" fill="#f1f1ef" fill-rule="nonzero" opacity="0.198077" stroke="none"/>
<path d="M1131.97 506.691L1129.58 517.04L1118.4 519.868L1129.51 520.997L1131.57 531.985L1133.94 520.224L1145.22 517.484L1133.79 516.448L1131.97 506.691Z" fill="#f1f1ef" fill-rule="nonzero" opacity="0.15" stroke="none"/>
<path d="M1471.09 1007.19L1468.7 1017.54L1457.52 1020.36L1468.64 1021.49L1470.7 1032.48L1473.06 1020.72L1484.35 1017.98L1472.91 1016.94L1471.09 1007.19Z" fill="#f1f1ef" fill-rule="nonzero" opacity="0.15" stroke="none"/>
<path d="M1197.72 550.786L1195.33 561.134L1184.15 563.962L1195.27 565.092L1197.33 576.079L1199.69 564.319L1210.98 561.578L1199.55 560.542L1197.72 550.786Z" fill="#f1f1ef" fill-rule="nonzero" opacity="0.15" stroke="none"/>
<path d="M1371.98 524.193L1369.59 534.541L1358.41 537.369L1369.52 538.499L1371.58 549.486L1373.94 537.726L1385.23 534.985L1373.8 533.949L1371.98 524.193Z" fill="#f1f1ef" fill-rule="nonzero" opacity="0.15" stroke="none"/>
<path d="M763.811 879.176L761.423 889.524L750.24 892.353L761.355 893.482L763.416 904.469L765.78 892.709L777.067 889.969L765.634 888.933L763.811 879.176Z" fill="#f1f1ef" fill-rule="nonzero" opacity="0.15" stroke="none"/>
<path d="M1264.21 605.371L1261.82 615.72L1250.63 618.548L1261.75 619.677L1263.81 630.665L1266.17 618.904L1277.46 616.164L1266.03 615.128L1264.21 605.371Z" fill="#f1f1ef" fill-rule="nonzero" opacity="0.15" stroke="none"/>
<path d="M656.04 960.355L653.652 970.703L642.469 973.531L653.584 974.661L655.645 985.648L658.008 973.887L669.295 971.147L657.863 970.111L656.04 960.355Z" fill="#f1f1ef" fill-rule="nonzero" opacity="0.15" stroke="none"/>
<path d="M1257.91 492.701L1255.52 503.05L1244.34 505.878L1255.45 507.007L1257.51 517.995L1259.88 506.234L1271.16 503.494L1259.73 502.458L1257.91 492.701Z" fill="#f1f1ef" fill-rule="nonzero" opacity="0.15" stroke="none"/>
<path d="M1597.03 993.198L1594.64 1003.55L1583.46 1006.37L1594.58 1007.5L1596.64 1018.49L1599 1006.73L1610.29 1003.99L1598.85 1002.95L1597.03 993.198Z" fill="#f1f1ef" fill-rule="nonzero" opacity="0.15" stroke="none"/>
<path d="M1112.35 573.18L1109.96 583.528L1098.77 586.356L1109.89 587.486L1111.95 598.473L1114.31 586.713L1125.6 583.972L1114.17 582.936L1112.35 573.18Z" fill="#f1f1ef" fill-rule="nonzero" opacity="0.15" stroke="none"/>
<path d="M1210.32 697.047L1207.93 707.395L1196.75 710.223L1207.86 711.353L1209.92 722.34L1212.29 710.58L1223.57 707.839L1212.14 706.803L1210.32 697.047Z" fill="#f1f1ef" fill-rule="nonzero" opacity="0.15" stroke="none"/>
<path d="M1033 628.194L1030.62 638.542L1019.43 641.37L1030.55 642.5L1032.61 653.487L1034.97 641.727L1046.26 638.986L1034.83 637.95L1033 628.194Z" fill="#f1f1ef" fill-rule="nonzero" opacity="0.15" stroke="none"/>
<path d="M1063.36 533.058L1060.97 543.407L1049.79 546.235L1060.9 547.364L1062.96 558.351L1065.33 546.591L1076.61 543.851L1065.18 542.815L1063.36 533.058Z" fill="#f1f1ef" fill-rule="nonzero" opacity="0.15" stroke="none"/>
<path d="M1402.48 1033.55L1400.1 1043.9L1388.91 1046.73L1400.03 1047.86L1402.09 1058.85L1404.45 1047.09L1415.74 1044.35L1404.31 1043.31L1402.48 1033.55Z" fill="#f1f1ef" fill-rule="nonzero" opacity="0.15" stroke="none"/>
<path d="M953.787 578.96L951.398 589.309L940.216 592.137L951.331 593.266L953.392 604.253L955.755 592.493L967.042 589.753L955.609 588.717L953.787 578.96Z" fill="#f1f1ef" fill-rule="nonzero" opacity="0.15" stroke="none"/>
<path d="M1416.76 609.57L1414.38 619.918L1403.19 622.747L1414.31 623.876L1416.37 634.863L1418.73 623.103L1430.02 620.363L1418.59 619.327L1416.76 609.57Z" fill="#f1f1ef" fill-rule="nonzero" opacity="0.123077" stroke="none"/>
<path d="M808.6 964.554L806.211 974.902L795.028 977.73L806.143 978.86L808.204 989.847L810.568 978.086L821.855 975.346L810.422 974.31L808.6 964.554Z" fill="#f1f1ef" fill-rule="nonzero" opacity="0.123077" stroke="none"/>
<path d="M1262.68 656.726L1264.57 648.03L1272.38 645.871L1264.71 644.686L1263.53 635.358L1261.63 645.249L1253.75 647.331L1261.64 648.443L1262.68 656.726Z" fill="#f1f1ef" fill-rule="nonzero" opacity="0.15" stroke="none"/>
<path d="M654.519 1011.71L656.409 1003.01L664.219 1000.85L656.546 999.67L655.368 990.342L653.464 1000.23L645.584 1002.31L653.479 1003.43L654.519 1011.71Z" fill="#f1f1ef" fill-rule="nonzero" opacity="0.15" stroke="none"/>
<path d="M1127.29 635.29L1126 642.029L1120.68 643.702L1125.91 644.619L1126.71 651.847L1128.01 644.184L1133.38 642.57L1128 641.708L1127.29 635.29Z" fill="#f1f1ef" fill-rule="nonzero" opacity="0.15" stroke="none"/>
<path d="M1018.37 580.242L1017.08 586.98L1011.76 588.653L1016.99 589.571L1017.79 596.799L1019.09 589.135L1024.46 587.521L1019.08 586.66L1018.37 580.242Z" fill="#f1f1ef" fill-rule="nonzero" opacity="0.15" stroke="none"/>
<path d="M958.475 473.854L957.188 480.593L951.867 482.266L957.095 483.183L957.897 490.411L959.194 482.748L964.562 481.134L959.184 480.272L958.475 473.854Z" fill="#f1f1ef" fill-rule="nonzero" opacity="0.198077" stroke="none"/>
<path d="M864.099 589.947L862.812 596.685L857.492 598.358L862.719 599.276L863.521 606.504L864.819 598.84L870.187 597.226L864.808 596.365L864.099 589.947Z" fill="#f1f1ef" fill-rule="nonzero" opacity="0.169231" stroke="none"/>
<path d="M882.838 671.836L881.551 678.574L876.231 680.247L881.458 681.165L882.26 688.393L883.557 680.729L888.925 679.115L883.547 678.254L882.838 671.836Z" fill="#f1f1ef" fill-rule="nonzero" opacity="0.169231" stroke="none"/>
<path d="M951.099 618.471L949.812 625.209L944.492 626.882L949.719 627.8L950.521 635.028L951.819 627.364L957.187 625.75L951.808 624.889L951.099 618.471Z" fill="#f1f1ef" fill-rule="nonzero" opacity="0.198077" stroke="none"/>
<path d="M895.849 529.926L894.562 536.664L889.242 538.337L894.469 539.255L895.271 546.483L896.568 538.819L901.936 537.205L896.558 536.344L895.849 529.926Z" fill="#f1f1ef" fill-rule="nonzero" opacity="0.169231" stroke="none"/>
<path d="M749.908 523.75L748.621 530.489L743.301 532.162L748.528 533.079L749.33 540.307L750.627 532.644L755.996 531.03L750.617 530.168L749.908 523.75Z" fill="#f1f1ef" fill-rule="nonzero" opacity="0.169231" stroke="none"/>
<path d="M1890.51 78.9407L1889.23 85.6791L1883.9 87.3523L1889.13 88.2699L1889.93 95.4979L1891.23 87.8343L1896.6 86.2204L1891.22 85.3589L1890.51 78.9407Z" fill="#f1f1ef" fill-rule="nonzero" opacity="0.169231" stroke="none"/>
<path d="M1284.98 996.654L1283.7 1003.39L1278.38 1005.07L1283.6 1005.98L1284.41 1013.21L1285.7 1005.55L1291.07 1003.93L1285.69 1003.07L1284.98 996.654Z" fill="#f1f1ef" fill-rule="nonzero" opacity="0.169231" stroke="none"/>
<path d="M841.193 463.22L839.906 469.958L834.586 471.632L839.813 472.549L840.615 479.777L841.912 472.114L847.28 470.5L841.902 469.638L841.193 463.22Z" fill="#f1f1ef" fill-rule="nonzero" opacity="0.169231" stroke="none"/>
<path d="M1460.29 118.251L1459 124.989L1453.68 126.662L1458.91 127.58L1459.71 134.808L1461.01 127.144L1466.37 125.53L1461 124.669L1460.29 118.251Z" fill="#f1f1ef" fill-rule="nonzero" opacity="0.169231" stroke="none"/>
<path d="M913.27 408.424L911.982 415.162L906.662 416.835L911.889 417.753L912.692 424.981L913.989 417.317L919.357 415.703L913.978 414.842L913.27 408.424Z" fill="#f1f1ef" fill-rule="nonzero" opacity="0.198077" stroke="none"/>
<path d="M1063.25 676.925L1060.63 688.865L1049.78 691.829L1060.44 693.455L1062.08 706.262L1064.72 692.683L1075.67 689.824L1064.7 688.297L1063.25 676.925Z" fill="#f1f1ef" fill-rule="nonzero" opacity="0.15" stroke="none"/>
<path d="M837.723 724.702L835.335 735.05L824.152 737.879L835.267 739.008L837.328 749.995L839.691 738.235L850.978 735.495L839.545 734.459L837.723 724.702Z" fill="#f1f1ef" fill-rule="nonzero" opacity="0.169231" stroke="none"/>
<path d="M1011.98 698.109L1009.59 708.458L998.405 711.286L1009.52 712.415L1011.58 723.402L1013.94 711.642L1025.23 708.902L1013.8 707.866L1011.98 698.109Z" fill="#f1f1ef" fill-rule="nonzero" opacity="0.15" stroke="none"/>
<path d="M904.205 779.288L901.817 789.636L890.634 792.464L901.749 793.594L903.81 804.581L906.174 792.821L917.461 790.08L906.028 789.044L904.205 779.288Z" fill="#f1f1ef" fill-rule="nonzero" opacity="0.169231" stroke="none"/>
<path d="M752.346 747.096L749.957 757.445L738.775 760.273L749.89 761.402L751.951 772.389L754.314 760.629L765.601 757.889L754.168 756.853L752.346 747.096Z" fill="#f1f1ef" fill-rule="nonzero" opacity="0.169231" stroke="none"/>
<path d="M673.005 802.11L670.616 812.458L659.434 815.287L670.549 816.416L672.61 827.403L674.973 815.643L686.26 812.903L674.827 811.867L673.005 802.11Z" fill="#f1f1ef" fill-rule="nonzero" opacity="0.169231" stroke="none"/>
<path d="M703.359 706.975L700.971 717.323L689.788 720.151L700.903 721.281L702.964 732.268L705.327 720.507L716.614 717.767L705.182 716.731L703.359 706.975Z" fill="#f1f1ef" fill-rule="nonzero" opacity="0.169231" stroke="none"/>
<path d="M640.799 648.487L638.411 658.835L627.228 661.663L638.343 662.793L640.404 673.78L642.768 662.019L654.054 659.279L642.622 658.243L640.799 648.487Z" fill="#f1f1ef" fill-rule="nonzero" opacity="0.169231" stroke="none"/>
<path d="M593.787 752.877L591.398 763.225L580.216 766.053L591.331 767.183L593.392 778.17L595.755 766.409L607.042 763.669L595.609 762.633L593.787 752.877Z" fill="#f1f1ef" fill-rule="nonzero" opacity="0.169231" stroke="none"/>
<path d="M1056.76 783.487L1054.38 793.835L1043.19 796.663L1054.31 797.793L1056.37 808.78L1058.73 797.019L1070.02 794.279L1058.59 793.243L1056.76 783.487Z" fill="#f1f1ef" fill-rule="nonzero" opacity="0.15" stroke="none"/>
<path d="M954.213 774.167L956.103 765.471L963.912 763.312L956.24 762.127L955.062 752.799L953.158 762.69L945.278 764.772L953.173 765.884L954.213 774.167Z" fill="#f1f1ef" fill-rule="nonzero" opacity="0.198077" stroke="none"/>
<path d="M902.685 830.642L904.574 821.946L912.384 819.787L904.711 818.603L903.533 809.275L901.629 819.165L893.749 821.248L901.644 822.36L902.685 830.642Z" fill="#f1f1ef" fill-rule="nonzero" opacity="0.169231" stroke="none"/>
<path d="M767.291 809.207L766.004 815.945L760.684 817.618L765.911 818.536L766.713 825.764L768.01 818.1L773.378 816.486L768 815.625L767.291 809.207Z" fill="#f1f1ef" fill-rule="nonzero" opacity="0.169231" stroke="none"/>
<path d="M658.371 754.158L657.084 760.896L651.764 762.57L656.991 763.487L657.793 770.715L659.09 763.052L664.459 761.438L659.08 760.576L658.371 754.158Z" fill="#f1f1ef" fill-rule="nonzero" opacity="0.169231" stroke="none"/>
<path d="M598.475 647.771L597.188 654.509L591.867 656.182L597.095 657.1L597.897 664.328L599.194 656.664L604.562 655.05L599.184 654.189L598.475 647.771Z" fill="#f1f1ef" fill-rule="nonzero" opacity="0.169231" stroke="none"/>
<path d="M504.099 763.863L502.812 770.602L497.492 772.275L502.719 773.192L503.521 780.42L504.819 772.757L510.187 771.143L504.808 770.281L504.099 763.863Z" fill="#f1f1ef" fill-rule="nonzero" opacity="0.169231" stroke="none"/>
<path d="M522.838 845.752L521.551 852.491L516.231 854.164L521.458 855.081L522.26 862.309L523.557 854.646L528.925 853.032L523.547 852.17L522.838 845.752Z" fill="#f1f1ef" fill-rule="nonzero" opacity="0.169231" stroke="none"/>
<path d="M591.099 792.387L589.812 799.126L584.492 800.799L589.719 801.716L590.521 808.944L591.819 801.281L597.187 799.667L591.808 798.805L591.099 792.387Z" fill="#f1f1ef" fill-rule="nonzero" opacity="0.169231" stroke="none"/>
<path d="M535.849 703.842L534.562 710.58L529.242 712.254L534.469 713.171L535.271 720.399L536.568 712.736L541.936 711.122L536.558 710.26L535.849 703.842Z" fill="#f1f1ef" fill-rule="nonzero" opacity="0.169231" stroke="none"/>
<path d="M428.475 792.07L427.187 798.808L421.867 800.481L427.094 801.399L427.897 808.627L429.194 800.963L434.562 799.349L429.183 798.488L428.475 792.07Z" fill="#f1f1ef" fill-rule="nonzero" opacity="0.198077" stroke="none"/>
<path d="M389.908 697.666L388.621 704.405L383.301 706.078L388.528 706.996L389.33 714.224L390.627 706.56L395.996 704.946L390.617 704.085L389.908 697.666Z" fill="#f1f1ef" fill-rule="nonzero" opacity="0.198077" stroke="none"/>
<path d="M703.254 850.842L700.629 862.781L689.78 865.745L700.439 867.371L702.075 880.178L704.72 866.6L715.666 863.74L704.699 862.213L703.254 850.842Z" fill="#f1f1ef" fill-rule="nonzero" opacity="0.169231" stroke="none"/>
<path d="M606.399 560.608L604.01 570.956L592.828 573.784L603.943 574.914L606.004 585.901L608.367 574.141L619.654 571.4L608.221 570.364L606.399 560.608Z" fill="#f1f1ef" fill-rule="nonzero" opacity="0.169231" stroke="none"/>
<path d="M1141.47 1033.51L1139.09 1043.86L1127.9 1046.69L1139.02 1047.82L1141.08 1058.81L1143.44 1047.04L1154.73 1044.3L1143.3 1043.27L1141.47 1033.51Z" fill="#f1f1ef" fill-rule="nonzero" opacity="0.169231" stroke="none"/>
<path d="M672.154 604.702L669.765 615.05L658.583 617.879L669.698 619.008L671.759 629.995L674.122 618.235L685.409 615.495L673.976 614.459L672.154 604.702Z" fill="#f1f1ef" fill-rule="nonzero" opacity="0.169231" stroke="none"/>
<path d="M846.407 578.109L844.019 588.458L832.836 591.286L843.951 592.415L846.012 603.402L848.376 591.642L859.663 588.902L848.23 587.866L846.407 578.109Z" fill="#f1f1ef" fill-rule="nonzero" opacity="0.169231" stroke="none"/>
<path d="M738.636 659.288L736.248 669.636L725.065 672.464L736.18 673.594L738.241 684.581L740.604 672.821L751.891 670.08L740.458 669.044L738.636 659.288Z" fill="#f1f1ef" fill-rule="nonzero" opacity="0.169231" stroke="none"/>
<path d="M732.338 546.618L729.949 556.966L718.767 559.794L729.882 560.924L731.943 571.911L734.306 560.151L745.593 557.41L734.16 556.374L732.338 546.618Z" fill="#f1f1ef" fill-rule="nonzero" opacity="0.169231" stroke="none"/>
<path d="M1872.94 101.808L1870.55 112.157L1859.37 114.985L1870.49 116.114L1872.55 127.102L1874.91 115.341L1886.2 112.601L1874.76 111.565L1872.94 101.808Z" fill="#f1f1ef" fill-rule="nonzero" opacity="0.169231" stroke="none"/>
<path d="M1267.41 1019.52L1265.02 1029.87L1253.84 1032.7L1264.96 1033.83L1267.02 1044.82L1269.38 1033.05L1280.67 1030.31L1269.24 1029.28L1267.41 1019.52Z" fill="#f1f1ef" fill-rule="nonzero" opacity="0.169231" stroke="none"/>
<path d="M586.777 627.096L584.388 637.445L573.205 640.273L584.32 641.402L586.382 652.389L588.745 640.629L600.032 637.889L588.599 636.853L586.777 627.096Z" fill="#f1f1ef" fill-rule="nonzero" opacity="0.169231" stroke="none"/>
<path d="M684.75 750.963L682.362 761.311L671.179 764.14L682.294 765.269L684.355 776.256L686.719 764.496L698.006 761.756L686.573 760.72L684.75 750.963Z" fill="#f1f1ef" fill-rule="nonzero" opacity="0.169231" stroke="none"/>
<path d="M507.435 682.11L505.047 692.458L493.864 695.287L504.979 696.416L507.04 707.403L509.404 695.643L520.691 692.903L509.258 691.867L507.435 682.11Z" fill="#f1f1ef" fill-rule="nonzero" opacity="0.169231" stroke="none"/>
<path d="M537.79 586.975L535.401 597.323L524.219 600.151L535.334 601.281L537.395 612.268L539.758 600.507L551.045 597.767L539.612 596.731L537.79 586.975Z" fill="#f1f1ef" fill-rule="nonzero" opacity="0.169231" stroke="none"/>
<path d="M475.23 528.487L472.841 538.835L461.659 541.663L472.774 542.793L474.835 553.78L477.198 542.019L488.485 539.279L477.052 538.243L475.23 528.487Z" fill="#f1f1ef" fill-rule="nonzero" opacity="0.198077" stroke="none"/>
<path d="M1010.31 1001.39L1007.92 1011.74L996.734 1014.57L1007.85 1015.7L1009.91 1026.68L1012.27 1014.92L1023.56 1012.18L1012.13 1011.15L1010.31 1001.39Z" fill="#f1f1ef" fill-rule="nonzero" opacity="0.198077" stroke="none"/>
<path d="M428.217 632.877L425.829 643.225L414.646 646.053L425.761 647.183L427.822 658.17L430.186 646.409L441.473 643.669L430.04 642.633L428.217 632.877Z" fill="#f1f1ef" fill-rule="nonzero" opacity="0.198077" stroke="none"/>
<path d="M737.115 710.642L739.005 701.946L746.814 699.787L739.142 698.603L737.964 689.275L736.06 699.165L728.18 701.248L736.075 702.36L737.115 710.642Z" fill="#f1f1ef" fill-rule="nonzero" opacity="0.169231" stroke="none"/>
<path d="M601.722 689.207L600.435 695.945L595.114 697.618L600.341 698.536L601.144 705.764L602.441 698.1L607.809 696.486L602.431 695.625L601.722 689.207Z" fill="#f1f1ef" fill-rule="nonzero" opacity="0.169231" stroke="none"/>
<path d="M492.802 634.158L491.515 640.896L486.194 642.57L491.422 643.487L492.224 650.715L493.521 643.052L498.889 641.438L493.511 640.576L492.802 634.158Z" fill="#f1f1ef" fill-rule="nonzero" opacity="0.169231" stroke="none"/>
<path d="M532.543 549.377L531.256 556.115L525.936 557.789L531.163 558.706L531.965 565.934L533.262 558.271L538.63 556.657L533.252 555.795L532.543 549.377Z" fill="#f1f1ef" fill-rule="nonzero" opacity="0.169231" stroke="none"/>
<path d="M1067.62 1022.28L1066.33 1029.02L1061.01 1030.69L1066.24 1031.61L1067.04 1038.84L1068.34 1031.17L1073.71 1029.56L1068.33 1028.7L1067.62 1022.28Z" fill="#f1f1ef" fill-rule="nonzero" opacity="0.169231" stroke="none"/>
<path d="M432.906 527.771L431.618 534.509L426.298 536.182L431.525 537.1L432.328 544.328L433.625 536.664L438.993 535.05L433.614 534.189L432.906 527.771Z" fill="#f1f1ef" fill-rule="nonzero" opacity="0.198077" stroke="none"/>
<path d="M967.981 1000.67L966.694 1007.41L961.374 1009.09L966.601 1010L967.403 1017.23L968.701 1009.57L974.069 1007.95L968.69 1007.09L967.981 1000.67Z" fill="#f1f1ef" fill-rule="nonzero" opacity="0.198077" stroke="none"/>
<path d="M338.53 643.863L337.243 650.602L331.923 652.275L337.15 653.192L337.952 660.42L339.249 652.757L344.617 651.143L339.239 650.281L338.53 643.863Z" fill="#f1f1ef" fill-rule="nonzero" opacity="0.198077" stroke="none"/>
<path d="M357.269 725.752L355.982 732.491L350.661 734.164L355.888 735.081L356.691 742.309L357.988 734.646L363.356 733.032L357.978 732.17L357.269 725.752Z" fill="#f1f1ef" fill-rule="nonzero" opacity="0.198077" stroke="none"/>
<path d="M425.53 672.387L424.243 679.126L418.923 680.799L424.15 681.716L424.952 688.944L426.249 681.281L431.617 679.667L426.239 678.805L425.53 672.387Z" fill="#f1f1ef" fill-rule="nonzero" opacity="0.198077" stroke="none"/>
<path d="M370.28 583.842L368.993 590.58L363.672 592.254L368.899 593.171L369.702 600.399L370.999 592.736L376.367 591.122L370.989 590.26L370.28 583.842Z" fill="#f1f1ef" fill-rule="nonzero" opacity="0.198077" stroke="none"/>
<path d="M262.905 672.07L261.618 678.808L256.298 680.481L261.525 681.399L262.327 688.627L263.624 680.963L268.993 679.349L263.614 678.488L262.905 672.07Z" fill="#f1f1ef" fill-rule="nonzero" opacity="0.198077" stroke="none"/>
<path d="M224.339 577.666L223.052 584.405L217.732 586.078L222.959 586.996L223.761 594.224L225.058 586.56L230.426 584.946L225.048 584.085L224.339 577.666Z" fill="#f1f1ef" fill-rule="nonzero" opacity="0.198077" stroke="none"/>
<path d="M315.624 517.136L314.337 523.875L309.016 525.548L314.243 526.466L315.046 533.694L316.343 526.03L321.711 524.416L316.333 523.555L315.624 517.136Z" fill="#f1f1ef" fill-rule="nonzero" opacity="0.198077" stroke="none"/>
<path d="M387.7 462.34L386.413 469.078L381.093 470.752L386.32 471.669L387.122 478.897L388.42 471.234L393.788 469.62L388.409 468.758L387.7 462.34Z" fill="#f1f1ef" fill-rule="nonzero" opacity="0.198077" stroke="none"/>
<path d="M922.776 935.244L921.489 941.983L916.168 943.656L921.396 944.573L922.198 951.801L923.495 944.138L928.863 942.524L923.485 941.662L922.776 935.244Z" fill="#f1f1ef" fill-rule="nonzero" opacity="0.198077" stroke="none"/>
<path d="M537.685 730.842L535.06 742.781L524.211 745.745L534.87 747.371L536.506 760.178L539.151 746.6L550.097 743.74L539.13 742.213L537.685 730.842Z" fill="#f1f1ef" fill-rule="nonzero" opacity="0.169231" stroke="none"/>
<path d="M591.968 100.608L589.58 110.956L578.397 113.784L589.512 114.914L591.573 125.901L593.936 114.141L605.223 111.4L593.79 110.364L591.968 100.608Z" fill="#f1f1ef" fill-rule="nonzero" opacity="0.169231" stroke="none"/>
<path d="M657.723 144.702L655.335 155.05L644.152 157.879L655.267 159.008L657.328 169.995L659.691 158.235L670.978 155.495L659.545 154.459L657.723 144.702Z" fill="#f1f1ef" fill-rule="nonzero" opacity="0.169231" stroke="none"/>
<path d="M831.977 118.109L829.588 128.458L818.405 131.286L829.52 132.415L831.582 143.402L833.945 131.642L845.232 128.902L833.799 127.866L831.977 118.109Z" fill="#f1f1ef" fill-rule="nonzero" opacity="0.169231" stroke="none"/>
<path d="M717.907 86.6178L715.519 96.966L704.336 99.7942L715.451 100.924L717.512 111.911L719.875 100.151L731.162 97.4102L719.729 96.3741L717.907 86.6178Z" fill="#f1f1ef" fill-rule="nonzero" opacity="0.169231" stroke="none"/>
<path d="M572.346 167.096L569.957 177.445L558.775 180.273L569.89 181.402L571.951 192.389L574.314 180.629L585.601 177.889L574.168 176.853L572.346 167.096Z" fill="#f1f1ef" fill-rule="nonzero" opacity="0.169231" stroke="none"/>
<path d="M493.005 222.11L490.616 232.458L479.434 235.287L490.549 236.416L492.61 247.403L494.973 235.643L506.26 232.903L494.827 231.867L493.005 222.11Z" fill="#f1f1ef" fill-rule="nonzero" opacity="0.169231" stroke="none"/>
<path d="M523.359 126.975L520.971 137.323L509.788 140.151L520.903 141.281L522.964 152.268L525.327 140.507L536.614 137.767L525.182 136.731L523.359 126.975Z" fill="#f1f1ef" fill-rule="nonzero" opacity="0.169231" stroke="none"/>
<path d="M460.799 68.4867L458.411 78.8348L447.228 81.6631L458.343 82.7927L460.404 93.7797L462.768 82.0194L474.054 79.2791L462.622 78.2429L460.799 68.4867Z" fill="#f1f1ef" fill-rule="nonzero" opacity="0.198077" stroke="none"/>
<path d="M413.787 172.877L411.398 183.225L400.216 186.053L411.331 187.183L413.392 198.17L415.755 186.409L427.042 183.669L415.609 182.633L413.787 172.877Z" fill="#f1f1ef" fill-rule="nonzero" opacity="0.198077" stroke="none"/>
<path d="M876.765 203.487L874.376 213.835L863.193 216.663L874.309 217.793L876.37 228.78L878.733 217.019L890.02 214.279L878.587 213.243L876.765 203.487Z" fill="#f1f1ef" fill-rule="nonzero" opacity="0.169231" stroke="none"/>
<path d="M810.333 209.348L807.146 223.703L792.225 227.626L807.056 229.193L809.806 244.434L812.959 228.12L828.02 224.319L812.765 222.882L810.333 209.348Z" fill="#f1f1ef" fill-rule="nonzero" opacity="0.169231" stroke="none"/>
<path d="M774.213 194.167L776.103 185.471L783.912 183.312L776.24 182.127L775.062 172.799L773.158 182.69L765.278 184.772L773.173 185.884L774.213 194.167Z" fill="#f1f1ef" fill-rule="nonzero" opacity="0.169231" stroke="none"/>
<path d="M722.685 250.642L724.574 241.946L732.384 239.787L724.711 238.603L723.533 229.275L721.629 239.165L713.749 241.248L721.644 242.36L722.685 250.642Z" fill="#f1f1ef" fill-rule="nonzero" opacity="0.169231" stroke="none"/>
<path d="M1804.47 882.005L1806.36 873.309L1814.17 871.149L1806.5 869.965L1805.32 860.637L1803.41 870.527L1795.53 872.61L1803.43 873.722L1804.47 882.005Z" fill="#f1f1ef" fill-rule="nonzero" opacity="0.169231" stroke="none"/>
<path d="M587.291 229.207L586.004 235.945L580.684 237.618L585.911 238.536L586.713 245.764L588.01 238.1L593.378 236.486L588 235.625L587.291 229.207Z" fill="#f1f1ef" fill-rule="nonzero" opacity="0.169231" stroke="none"/>
<path d="M478.371 174.158L477.084 180.896L471.764 182.57L476.991 183.487L477.793 190.715L479.09 183.052L484.459 181.438L479.08 180.576L478.371 174.158Z" fill="#f1f1ef" fill-rule="nonzero" opacity="0.198077" stroke="none"/>
<path d="M518.112 89.3771L516.825 96.1155L511.505 97.7886L516.732 98.7062L517.534 105.934L518.832 98.2707L524.2 96.6567L518.821 95.7952L518.112 89.3771Z" fill="#f1f1ef" fill-rule="nonzero" opacity="0.169231" stroke="none"/>
<path d="M418.475 67.7706L417.188 74.509L411.867 76.1822L417.095 77.0998L417.897 84.3278L419.194 76.6642L424.562 75.0502L419.184 74.1888L418.475 67.7706Z" fill="#f1f1ef" fill-rule="nonzero" opacity="0.198077" stroke="none"/>
<path d="M324.099 183.863L322.812 190.602L317.492 192.275L322.719 193.192L323.521 200.42L324.819 192.757L330.187 191.143L324.808 190.281L324.099 183.863Z" fill="#f1f1ef" fill-rule="nonzero" opacity="0.198077" stroke="none"/>
<path d="M411.099 212.387L409.812 219.126L404.492 220.799L409.719 221.716L410.521 228.944L411.819 221.281L417.187 219.667L411.808 218.805L411.099 212.387Z" fill="#f1f1ef" fill-rule="nonzero" opacity="0.198077" stroke="none"/>
<path d="M355.849 123.842L354.562 130.58L349.242 132.254L354.469 133.171L355.271 140.399L356.568 132.736L361.936 131.122L356.558 130.26L355.849 123.842Z" fill="#f1f1ef" fill-rule="nonzero" opacity="0.198077" stroke="none"/>
<path d="M248.475 212.07L247.187 218.808L241.867 220.481L247.094 221.399L247.897 228.627L249.194 220.963L254.562 219.349L249.183 218.488L248.475 212.07Z" fill="#f1f1ef" fill-rule="nonzero" opacity="0.198077" stroke="none"/>
<path d="M209.908 117.666L208.621 124.405L203.301 126.078L208.528 126.996L209.33 134.224L210.627 126.56L215.996 124.946L210.617 124.085L209.908 117.666Z" fill="#f1f1ef" fill-rule="nonzero" opacity="0.198077" stroke="none"/>
<path d="M301.193 57.1364L299.906 63.8748L294.586 65.548L299.813 66.4656L300.615 73.6936L301.912 66.03L307.28 64.416L301.902 63.5546L301.193 57.1364Z" fill="#f1f1ef" fill-rule="nonzero" opacity="0.198077" stroke="none"/>
<path d="M373.27 2.34007L371.982 9.07848L366.662 10.7516L371.889 11.6692L372.692 18.8973L373.989 11.2337L379.357 9.6197L373.978 8.75823L373.27 2.34007Z" fill="#f1f1ef" fill-rule="nonzero" opacity="0.198077" stroke="none"/>
<path d="M523.254 270.842L520.629 282.781L509.78 285.745L520.439 287.371L522.075 300.178L524.72 286.6L535.666 283.74L524.699 282.213L523.254 270.842Z" fill="#f1f1ef" fill-rule="nonzero" opacity="0.169231" stroke="none"/>
<path d="M1266.4 126.691L1264.01 137.04L1252.83 139.868L1263.94 140.997L1266 151.985L1268.37 140.224L1279.65 137.484L1268.22 136.448L1266.4 126.691Z" fill="#f1f1ef" fill-rule="nonzero" opacity="0.15" stroke="none"/>
<path d="M1332.15 170.786L1329.77 181.134L1318.58 183.962L1329.7 185.092L1331.76 196.079L1334.12 184.319L1345.41 181.578L1333.98 180.542L1332.15 170.786Z" fill="#f1f1ef" fill-rule="nonzero" opacity="0.15" stroke="none"/>
<path d="M1506.41 144.193L1504.02 154.541L1492.84 157.369L1503.95 158.499L1506.01 169.486L1508.38 157.726L1519.66 154.985L1508.23 153.949L1506.41 144.193Z" fill="#f1f1ef" fill-rule="nonzero" opacity="0.123077" stroke="none"/>
<path d="M1398.64 225.371L1396.25 235.72L1385.06 238.548L1396.18 239.677L1398.24 250.665L1400.6 238.904L1411.89 236.164L1400.46 235.128L1398.64 225.371Z" fill="#f1f1ef" fill-rule="nonzero" opacity="0.15" stroke="none"/>
<path d="M1392.34 112.701L1389.95 123.05L1378.77 125.878L1389.88 127.007L1391.94 137.995L1394.31 126.234L1405.59 123.494L1394.16 122.458L1392.34 112.701Z" fill="#f1f1ef" fill-rule="nonzero" opacity="0.15" stroke="none"/>
<path d="M1246.78 193.18L1244.39 203.528L1233.21 206.356L1244.32 207.486L1246.38 218.473L1248.74 206.713L1260.03 203.972L1248.6 202.936L1246.78 193.18Z" fill="#f1f1ef" fill-rule="nonzero" opacity="0.15" stroke="none"/>
<path d="M1344.75 317.047L1342.36 327.395L1331.18 330.223L1342.29 331.353L1344.36 342.34L1346.72 330.58L1358.01 327.839L1346.57 326.803L1344.75 317.047Z" fill="#f1f1ef" fill-rule="nonzero" opacity="0.15" stroke="none"/>
<path d="M1683.87 817.543L1681.49 827.891L1670.3 830.719L1681.42 831.849L1683.48 842.836L1685.84 831.076L1697.13 828.335L1685.7 827.299L1683.87 817.543Z" fill="#f1f1ef" fill-rule="nonzero" opacity="0.15" stroke="none"/>
<path d="M1167.44 248.194L1165.05 258.542L1153.86 261.37L1164.98 262.5L1167.04 273.487L1169.4 261.727L1180.69 258.986L1169.26 257.95L1167.44 248.194Z" fill="#f1f1ef" fill-rule="nonzero" opacity="0.15" stroke="none"/>
<path d="M1197.79 153.058L1195.4 163.407L1184.22 166.235L1195.33 167.364L1197.39 178.351L1199.76 166.591L1211.05 163.851L1199.61 162.815L1197.79 153.058Z" fill="#f1f1ef" fill-rule="nonzero" opacity="0.15" stroke="none"/>
<path d="M1135.23 94.5703L1132.84 104.919L1121.66 107.747L1132.77 108.876L1134.84 119.863L1137.2 108.103L1148.49 105.363L1137.05 104.327L1135.23 94.5703Z" fill="#f1f1ef" fill-rule="nonzero" opacity="0.15" stroke="none"/>
<path d="M1088.22 198.96L1085.83 209.309L1074.65 212.137L1085.76 213.266L1087.82 224.253L1090.19 212.493L1101.47 209.753L1090.04 208.717L1088.22 198.96Z" fill="#f1f1ef" fill-rule="nonzero" opacity="0.15" stroke="none"/>
<path d="M1551.2 229.57L1548.81 239.918L1537.62 242.747L1548.74 243.876L1550.8 254.863L1553.16 243.103L1564.45 240.363L1553.02 239.327L1551.2 229.57Z" fill="#f1f1ef" fill-rule="nonzero" opacity="0.123077" stroke="none"/>
<path d="M1484.76 235.432L1481.58 249.786L1466.66 253.71L1481.49 255.277L1484.24 270.518L1487.39 254.204L1502.45 250.403L1487.2 248.965L1484.76 235.432Z" fill="#f1f1ef" fill-rule="nonzero" opacity="0.123077" stroke="none"/>
<path d="M1448.64 220.251L1450.53 211.555L1458.34 209.395L1450.67 208.211L1449.49 198.883L1447.59 208.773L1439.71 210.856L1447.6 211.968L1448.64 220.251Z" fill="#f1f1ef" fill-rule="nonzero" opacity="0.123077" stroke="none"/>
<path d="M1261.72 255.29L1260.43 262.029L1255.11 263.702L1260.34 264.619L1261.14 271.847L1262.44 264.184L1267.81 262.57L1262.43 261.708L1261.72 255.29Z" fill="#f1f1ef" fill-rule="nonzero" opacity="0.15" stroke="none"/>
<path d="M1152.8 200.242L1151.51 206.98L1146.19 208.653L1151.42 209.571L1152.22 216.799L1153.52 209.135L1158.89 207.521L1153.51 206.66L1152.8 200.242Z" fill="#f1f1ef" fill-rule="nonzero" opacity="0.15" stroke="none"/>
<path d="M1192.54 115.461L1191.26 122.199L1185.94 123.872L1191.16 124.79L1191.97 132.018L1193.26 124.354L1198.63 122.74L1193.25 121.879L1192.54 115.461Z" fill="#f1f1ef" fill-rule="nonzero" opacity="0.15" stroke="none"/>
<path d="M1092.91 93.8543L1091.62 100.593L1086.3 102.266L1091.53 103.183L1092.33 110.411L1093.62 102.748L1098.99 101.134L1093.61 100.272L1092.91 93.8543Z" fill="#f1f1ef" fill-rule="nonzero" opacity="0.15" stroke="none"/>
<path d="M998.53 209.947L997.243 216.685L991.923 218.358L997.15 219.276L997.952 226.504L999.249 218.84L1004.62 217.226L999.239 216.365L998.53 209.947Z" fill="#f1f1ef" fill-rule="nonzero" opacity="0.15" stroke="none"/>
<path d="M1017.27 291.836L1015.98 298.574L1010.66 300.247L1015.89 301.165L1016.69 308.393L1017.99 300.729L1023.36 299.115L1017.98 298.254L1017.27 291.836Z" fill="#f1f1ef" fill-rule="nonzero" opacity="0.15" stroke="none"/>
<path d="M1356.39 792.332L1355.11 799.07L1349.79 800.743L1355.01 801.661L1355.82 808.889L1357.11 801.225L1362.48 799.611L1357.1 798.75L1356.39 792.332Z" fill="#f1f1ef" fill-rule="nonzero" opacity="0.15" stroke="none"/>
<path d="M1085.53 238.471L1084.24 245.209L1078.92 246.882L1084.15 247.8L1084.95 255.028L1086.25 247.364L1091.62 245.75L1086.24 244.889L1085.53 238.471Z" fill="#f1f1ef" fill-rule="nonzero" opacity="0.15" stroke="none"/>
<path d="M1030.28 149.926L1028.99 156.664L1023.67 158.337L1028.9 159.255L1029.7 166.483L1031 158.819L1036.37 157.205L1030.99 156.344L1030.28 149.926Z" fill="#f1f1ef" fill-rule="nonzero" opacity="0.15" stroke="none"/>
<path d="M922.905 238.153L921.618 244.892L916.298 246.565L921.525 247.482L922.327 254.71L923.624 247.047L928.993 245.433L923.614 244.571L922.905 238.153Z" fill="#f1f1ef" fill-rule="nonzero" opacity="0.198077" stroke="none"/>
<path d="M884.339 143.75L883.052 150.489L877.732 152.162L882.959 153.079L883.761 160.307L885.058 152.644L890.426 151.03L885.048 150.168L884.339 143.75Z" fill="#f1f1ef" fill-rule="nonzero" opacity="0.169231" stroke="none"/>
<path d="M975.624 83.2201L974.337 89.9585L969.016 91.6317L974.243 92.5493L975.046 99.7773L976.343 92.1137L981.711 90.4997L976.333 89.6382L975.624 83.2201Z" fill="#f1f1ef" fill-rule="nonzero" opacity="0.15" stroke="none"/>
<path d="M1047.7 28.4237L1046.41 35.1621L1041.09 36.8353L1046.32 37.7529L1047.12 44.9809L1048.42 37.3173L1053.79 35.7034L1048.41 34.8419L1047.7 28.4237Z" fill="#f1f1ef" fill-rule="nonzero" opacity="0.15" stroke="none"/>
<path d="M1197.68 296.925L1195.06 308.865L1184.21 311.829L1194.87 313.455L1196.51 326.262L1199.15 312.683L1210.1 309.824L1199.13 308.297L1197.68 296.925Z" fill="#f1f1ef" fill-rule="nonzero" opacity="0.15" stroke="none"/>
<path d="M1536.81 797.421L1534.18 809.361L1523.34 812.325L1533.99 813.951L1535.63 826.758L1538.28 813.179L1549.22 810.32L1538.25 808.793L1536.81 797.421Z" fill="#f1f1ef" fill-rule="nonzero" opacity="0.15" stroke="none"/>
<path d="M1831.97 246.691L1829.58 257.04L1818.4 259.868L1829.51 260.997L1831.57 271.985L1833.94 260.224L1845.22 257.484L1833.79 256.448L1831.97 246.691Z" fill="#f1f1ef" fill-rule="nonzero" opacity="0.123077" stroke="none"/>
<path d="M124.262 899.446L121.873 909.794L110.691 912.622L121.806 913.752L123.867 924.739L126.23 912.978L137.517 910.238L126.084 909.202L124.262 899.446Z" fill="#f1f1ef" fill-rule="nonzero" opacity="0.103846" stroke="none"/>
<path d="M1812.35 313.18L1809.96 323.528L1798.77 326.356L1809.89 327.486L1811.95 338.473L1814.31 326.713L1825.6 323.972L1814.17 322.936L1812.35 313.18Z" fill="#f1f1ef" fill-rule="nonzero" opacity="0.123077" stroke="none"/>
<path d="M1910.32 437.047L1907.93 447.395L1896.75 450.223L1907.86 451.353L1909.92 462.34L1912.29 450.58L1923.57 447.839L1912.14 446.803L1910.32 437.047Z" fill="#f1f1ef" fill-rule="nonzero" opacity="0.103846" stroke="none"/>
<path d="M1733 368.194L1730.62 378.542L1719.43 381.37L1730.55 382.5L1732.61 393.487L1734.97 381.727L1746.26 378.986L1734.83 377.95L1733 368.194Z" fill="#f1f1ef" fill-rule="nonzero" opacity="0.123077" stroke="none"/>
<path d="M1763.36 273.058L1760.97 283.407L1749.79 286.235L1760.9 287.364L1762.96 298.351L1765.33 286.591L1776.61 283.851L1765.18 282.815L1763.36 273.058Z" fill="#f1f1ef" fill-rule="nonzero" opacity="0.123077" stroke="none"/>
<path d="M1700.8 214.57L1698.41 224.919L1687.23 227.747L1698.34 228.876L1700.4 239.863L1702.77 228.103L1714.05 225.363L1702.62 224.327L1700.8 214.57Z" fill="#f1f1ef" fill-rule="nonzero" opacity="0.123077" stroke="none"/>
<path d="M169.05 984.823L166.661 995.171L155.479 997.999L166.594 999.129L168.655 1010.12L171.018 998.356L182.305 995.615L170.872 994.579L169.05 984.823Z" fill="#f1f1ef" fill-rule="nonzero" opacity="0.103846" stroke="none"/>
<path d="M1827.29 375.29L1826 382.029L1820.68 383.702L1825.91 384.619L1826.71 391.847L1828.01 384.184L1833.38 382.57L1828 381.708L1827.29 375.29Z" fill="#f1f1ef" fill-rule="nonzero" opacity="0.123077" stroke="none"/>
<path d="M1718.37 320.242L1717.08 326.98L1711.76 328.653L1716.99 329.571L1717.79 336.799L1719.09 329.135L1724.46 327.521L1719.08 326.66L1718.37 320.242Z" fill="#f1f1ef" fill-rule="nonzero" opacity="0.123077" stroke="none"/>
<path d="M1758.11 235.461L1756.83 242.199L1751.5 243.872L1756.73 244.79L1757.53 252.018L1758.83 244.354L1764.2 242.74L1758.82 241.879L1758.11 235.461Z" fill="#f1f1ef" fill-rule="nonzero" opacity="0.123077" stroke="none"/>
<path d="M1658.47 213.854L1657.19 220.593L1651.87 222.266L1657.09 223.183L1657.9 230.411L1659.19 222.748L1664.56 221.134L1659.18 220.272L1658.47 213.854Z" fill="#f1f1ef" fill-rule="nonzero" opacity="0.123077" stroke="none"/>
<path d="M1582.84 411.836L1581.55 418.574L1576.23 420.247L1581.46 421.165L1582.26 428.393L1583.56 420.729L1588.93 419.115L1583.55 418.254L1582.84 411.836Z" fill="#f1f1ef" fill-rule="nonzero" opacity="0.123077" stroke="none"/>
<path d="M1651.1 358.471L1649.81 365.209L1644.49 366.882L1649.72 367.8L1650.52 375.028L1651.82 367.364L1657.19 365.75L1651.81 364.889L1651.1 358.471Z" fill="#f1f1ef" fill-rule="nonzero" opacity="0.123077" stroke="none"/>
<path d="M1595.85 269.926L1594.56 276.664L1589.24 278.337L1594.47 279.255L1595.27 286.483L1596.57 278.819L1601.94 277.205L1596.56 276.344L1595.85 269.926Z" fill="#f1f1ef" fill-rule="nonzero" opacity="0.123077" stroke="none"/>
<path d="M1488.47 358.153L1487.19 364.892L1481.87 366.565L1487.09 367.482L1487.9 374.71L1489.19 367.047L1494.56 365.433L1489.18 364.571L1488.47 358.153Z" fill="#f1f1ef" fill-rule="nonzero" opacity="0.123077" stroke="none"/>
<path d="M1541.19 203.22L1539.91 209.958L1534.59 211.632L1539.81 212.549L1540.62 219.777L1541.91 212.114L1547.28 210.5L1541.9 209.638L1541.19 203.22Z" fill="#f1f1ef" fill-rule="nonzero" opacity="0.123077" stroke="none"/>
<path d="M1613.27 148.424L1611.98 155.162L1606.66 156.835L1611.89 157.753L1612.69 164.981L1613.99 157.317L1619.36 155.703L1613.98 154.842L1613.27 148.424Z" fill="#f1f1ef" fill-rule="nonzero" opacity="0.123077" stroke="none"/>
<path d="M1763.25 416.925L1760.63 428.865L1749.78 431.829L1760.44 433.455L1762.08 446.262L1764.72 432.683L1775.67 429.824L1764.7 428.297L1763.25 416.925Z" fill="#f1f1ef" fill-rule="nonzero" opacity="0.123077" stroke="none"/>
<path d="M327.513 969.347L325.125 979.695L313.942 982.523L325.057 983.653L327.118 994.64L329.481 982.879L340.768 980.139L329.336 979.103L327.513 969.347Z" fill="#f1f1ef" fill-rule="nonzero" opacity="0.103846" stroke="none"/>
<path d="M393.268 1013.44L390.88 1023.79L379.697 1026.62L390.812 1027.75L392.873 1038.73L395.237 1026.97L406.523 1024.23L395.091 1023.2L393.268 1013.44Z" fill="#f1f1ef" fill-rule="nonzero" opacity="0.103846" stroke="none"/>
<path d="M567.522 986.848L565.133 997.196L553.951 1000.02L565.066 1001.15L567.127 1012.14L569.49 1000.38L580.777 997.641L569.344 996.605L567.522 986.848Z" fill="#f1f1ef" fill-rule="nonzero" opacity="0.198077" stroke="none"/>
<path d="M61.9821 12.1669L59.5935 22.515L48.4109 25.3432L59.5259 26.4729L61.5871 37.4599L63.9503 25.6996L75.2372 22.9592L63.8045 21.9231L61.9821 12.1669Z" fill="#f1f1ef" fill-rule="nonzero" opacity="0.103846" stroke="none"/>
<path d="M453.452 955.357L451.064 965.705L439.881 968.533L450.996 969.663L453.057 980.65L455.42 968.889L466.707 966.149L455.275 965.113L453.452 955.357Z" fill="#f1f1ef" fill-rule="nonzero" opacity="0.103846" stroke="none"/>
<path d="M45.6813 260.281L43.2928 270.629L32.1101 273.457L43.2252 274.587L45.2863 285.574L47.6495 273.814L58.9365 271.073L47.5037 270.037L45.6813 260.281Z" fill="#f1f1ef" fill-rule="nonzero" opacity="0.103846" stroke="none"/>
<path d="M1853 622.11L1850.62 632.458L1839.43 635.287L1850.55 636.416L1852.61 647.403L1854.97 635.643L1866.26 632.903L1854.83 631.867L1853 622.11Z" fill="#f1f1ef" fill-rule="nonzero" opacity="0.103846" stroke="none"/>
<path d="M1773.79 572.877L1771.4 583.225L1760.22 586.053L1771.33 587.183L1773.39 598.17L1775.75 586.409L1787.04 583.669L1775.61 582.633L1773.79 572.877Z" fill="#f1f1ef" fill-rule="nonzero" opacity="0.123077" stroke="none"/>
<path d="M214.541 16.3657L212.153 26.7139L200.97 29.5421L212.085 30.6717L214.146 41.6588L216.51 29.8985L227.797 27.1581L216.364 26.122L214.541 16.3657Z" fill="#f1f1ef" fill-rule="nonzero" opacity="0.198077" stroke="none"/>
<path d="M148.11 22.2271L144.923 36.5819L130.002 40.5051L144.833 42.0721L147.583 57.3132L150.736 40.9995L165.797 37.1981L150.542 35.7608L148.11 22.2271Z" fill="#f1f1ef" fill-rule="nonzero" opacity="0.103846" stroke="none"/>
<path d="M111.99 7.04626L113.879-1.64998L121.689-3.80929L114.016-4.99349L112.838-14.3216L110.934-4.43136L103.054-2.34845L110.949-1.23669L111.99 7.04626Z" fill="#f1f1ef" fill-rule="nonzero" opacity="0.103846" stroke="none"/>
<path d="M60.4614 63.5216L62.3509 54.8253L70.1605 52.666L62.4877 51.4818L61.3098 42.1537L59.4057 52.044L51.5259 54.1269L59.4209 55.2386L60.4614 63.5216Z" fill="#f1f1ef" fill-rule="nonzero" opacity="0.103846" stroke="none"/>
<path d="M60.6266 322.391L59.3394 329.13L54.0191 330.803L59.2462 331.72L60.0486 338.948L61.3458 331.285L66.7139 329.671L61.3355 328.809L60.6266 322.391Z" fill="#f1f1ef" fill-rule="nonzero" opacity="0.103846" stroke="none"/>
<path d="M1838.37 574.158L1837.08 580.896L1831.76 582.57L1836.99 583.487L1837.79 590.715L1839.09 583.052L1844.46 581.438L1839.08 580.576L1838.37 574.158Z" fill="#f1f1ef" fill-rule="nonzero" opacity="0.198077" stroke="none"/>
<path d="M1778.47 467.771L1777.19 474.509L1771.87 476.182L1777.09 477.1L1777.9 484.328L1779.19 476.664L1784.56 475.05L1779.18 474.189L1778.47 467.771Z" fill="#f1f1ef" fill-rule="nonzero" opacity="0.123077" stroke="none"/>
<path d="M1684.1 583.863L1682.81 590.602L1677.49 592.275L1682.72 593.192L1683.52 600.42L1684.82 592.757L1690.19 591.143L1684.81 590.281L1684.1 583.863Z" fill="#f1f1ef" fill-rule="nonzero" opacity="0.123077" stroke="none"/>
<path d="M1702.84 665.752L1701.55 672.491L1696.23 674.164L1701.46 675.081L1702.26 682.309L1703.56 674.646L1708.93 673.032L1703.55 672.17L1702.84 665.752Z" fill="#f1f1ef" fill-rule="nonzero" opacity="0.123077" stroke="none"/>
<path d="M1771.1 612.387L1769.81 619.126L1764.49 620.799L1769.72 621.716L1770.52 628.944L1771.82 621.281L1777.19 619.667L1771.81 618.805L1771.1 612.387Z" fill="#f1f1ef" fill-rule="nonzero" opacity="0.123077" stroke="none"/>
<path d="M1715.85 523.842L1714.56 530.58L1709.24 532.254L1714.47 533.171L1715.27 540.399L1716.57 532.736L1721.94 531.122L1716.56 530.26L1715.85 523.842Z" fill="#f1f1ef" fill-rule="nonzero" opacity="0.123077" stroke="none"/>
<path d="M1608.47 612.07L1607.19 618.808L1601.87 620.481L1607.09 621.399L1607.9 628.627L1609.19 620.963L1614.56 619.349L1609.18 618.488L1608.47 612.07Z" fill="#f1f1ef" fill-rule="nonzero" opacity="0.123077" stroke="none"/>
<path d="M1569.91 517.666L1568.62 524.405L1563.3 526.078L1568.53 526.996L1569.33 534.224L1570.63 526.56L1576 524.946L1570.62 524.085L1569.91 517.666Z" fill="#f1f1ef" fill-rule="nonzero" opacity="0.123077" stroke="none"/>
<path d="M1466.4 606.691L1464.01 617.04L1452.83 619.868L1463.94 620.997L1466 631.985L1468.37 620.224L1479.65 617.484L1468.22 616.448L1466.4 606.691Z" fill="#f1f1ef" fill-rule="nonzero" opacity="0.123077" stroke="none"/>
<path d="M858.234 961.675L855.845 972.023L844.662 974.851L855.777 975.981L857.839 986.968L860.202 975.207L871.489 972.467L860.056 971.431L858.234 961.675Z" fill="#f1f1ef" fill-rule="nonzero" opacity="0.123077" stroke="none"/>
<path d="M1532.15 650.786L1529.77 661.134L1518.58 663.962L1529.7 665.092L1531.76 676.079L1534.12 664.319L1545.41 661.578L1533.98 660.542L1532.15 650.786Z" fill="#f1f1ef" fill-rule="nonzero" opacity="0.123077" stroke="none"/>
<path d="M1706.41 624.193L1704.02 634.541L1692.84 637.369L1703.95 638.499L1706.01 649.486L1708.38 637.726L1719.66 634.985L1708.23 633.949L1706.41 624.193Z" fill="#f1f1ef" fill-rule="nonzero" opacity="0.123077" stroke="none"/>
<path d="M1592.34 592.701L1589.95 603.05L1578.77 605.878L1589.88 607.007L1591.94 617.995L1594.31 606.234L1605.59 603.494L1594.16 602.458L1592.34 592.701Z" fill="#f1f1ef" fill-rule="nonzero" opacity="0.123077" stroke="none"/>
<path d="M1446.78 673.18L1444.39 683.528L1433.21 686.356L1444.32 687.486L1446.38 698.473L1448.74 686.713L1460.03 683.972L1448.6 682.936L1446.78 673.18Z" fill="#f1f1ef" fill-rule="nonzero" opacity="0.123077" stroke="none"/>
<path d="M838.611 1028.16L836.223 1038.51L825.04 1041.34L836.155 1042.47L838.216 1053.46L840.58 1041.7L851.867 1038.96L840.434 1037.92L838.611 1028.16Z" fill="#f1f1ef" fill-rule="nonzero" opacity="0.123077" stroke="none"/>
<path d="M1367.44 728.194L1365.05 738.542L1353.86 741.37L1364.98 742.5L1367.04 753.487L1369.4 741.727L1380.69 738.986L1369.26 737.95L1367.44 728.194Z" fill="#f1f1ef" fill-rule="nonzero" opacity="0.15" stroke="none"/>
<path d="M1335.23 574.57L1332.84 584.919L1321.66 587.747L1332.77 588.876L1334.84 599.863L1337.2 588.103L1348.49 585.363L1337.05 584.327L1335.23 574.57Z" fill="#f1f1ef" fill-rule="nonzero" opacity="0.15" stroke="none"/>
<path d="M727.065 929.554L724.676 939.902L713.494 942.73L724.609 943.86L726.67 954.847L729.033 943.086L740.32 940.346L728.887 939.31L727.065 929.554Z" fill="#f1f1ef" fill-rule="nonzero" opacity="0.15" stroke="none"/>
<path d="M1288.22 678.96L1285.83 689.309L1274.65 692.137L1285.76 693.266L1287.82 704.253L1290.19 692.493L1301.47 689.753L1290.04 688.717L1288.22 678.96Z" fill="#f1f1ef" fill-rule="nonzero" opacity="0.15" stroke="none"/>
<path d="M680.052 1033.94L677.664 1044.29L666.481 1047.12L677.596 1048.25L679.657 1059.24L682.02 1047.48L693.307 1044.74L681.875 1043.7L680.052 1033.94Z" fill="#f1f1ef" fill-rule="nonzero" opacity="0.15" stroke="none"/>
<path d="M1751.2 709.57L1748.81 719.918L1737.62 722.747L1748.74 723.876L1750.8 734.863L1753.16 723.103L1764.45 720.363L1753.02 719.327L1751.2 709.57Z" fill="#f1f1ef" fill-rule="nonzero" opacity="0.123077" stroke="none"/>
<path d="M1648.64 700.251L1650.53 691.555L1658.34 689.395L1650.67 688.211L1649.49 678.883L1647.59 688.773L1639.71 690.856L1647.6 691.968L1648.64 700.251Z" fill="#f1f1ef" fill-rule="nonzero" opacity="0.123077" stroke="none"/>
<path d="M1461.72 735.29L1460.43 742.029L1455.11 743.702L1460.34 744.619L1461.14 751.847L1462.44 744.184L1467.81 742.57L1462.43 741.708L1461.72 735.29Z" fill="#f1f1ef" fill-rule="nonzero" opacity="0.123077" stroke="none"/>
<path d="M1352.8 680.242L1351.51 686.98L1346.19 688.653L1351.42 689.571L1352.22 696.799L1353.52 689.135L1358.89 687.521L1353.51 686.66L1352.8 680.242Z" fill="#f1f1ef" fill-rule="nonzero" opacity="0.15" stroke="none"/>
<path d="M744.637 1035.22L743.35 1041.96L738.029 1043.64L743.256 1044.55L744.059 1051.78L745.356 1044.12L750.724 1042.5L745.346 1041.64L744.637 1035.22Z" fill="#f1f1ef" fill-rule="nonzero" opacity="0.15" stroke="none"/>
<path d="M1392.54 595.461L1391.26 602.199L1385.94 603.872L1391.16 604.79L1391.97 612.018L1393.26 604.354L1398.63 602.74L1393.25 601.879L1392.54 595.461Z" fill="#f1f1ef" fill-rule="nonzero" opacity="0.15" stroke="none"/>
<path d="M784.378 950.444L783.091 957.182L777.77 958.856L782.997 959.773L783.8 967.001L785.097 959.338L790.465 957.724L785.087 956.862L784.378 950.444Z" fill="#f1f1ef" fill-rule="nonzero" opacity="0.15" stroke="none"/>
<path d="M1292.91 573.854L1291.62 580.593L1286.3 582.266L1291.53 583.183L1292.33 590.411L1293.62 582.748L1298.99 581.134L1293.61 580.272L1292.91 573.854Z" fill="#f1f1ef" fill-rule="nonzero" opacity="0.15" stroke="none"/>
<path d="M684.74 928.837L683.453 935.576L678.133 937.249L683.36 938.167L684.162 945.395L685.46 937.731L690.828 936.117L685.449 935.256L684.74 928.837Z" fill="#f1f1ef" fill-rule="nonzero" opacity="0.15" stroke="none"/>
<path d="M1198.53 689.947L1197.24 696.685L1191.92 698.358L1197.15 699.276L1197.95 706.504L1199.25 698.84L1204.62 697.226L1199.24 696.365L1198.53 689.947Z" fill="#f1f1ef" fill-rule="nonzero" opacity="0.15" stroke="none"/>
<path d="M1217.27 771.836L1215.98 778.574L1210.66 780.247L1215.89 781.165L1216.69 788.393L1217.99 780.729L1223.36 779.115L1217.98 778.254L1217.27 771.836Z" fill="#f1f1ef" fill-rule="nonzero" opacity="0.15" stroke="none"/>
<path d="M1285.53 718.471L1284.24 725.209L1278.92 726.882L1284.15 727.8L1284.95 735.028L1286.25 727.364L1291.62 725.75L1286.24 724.889L1285.53 718.471Z" fill="#f1f1ef" fill-rule="nonzero" opacity="0.15" stroke="none"/>
<path d="M1230.28 629.926L1228.99 636.664L1223.67 638.337L1228.9 639.255L1229.7 646.483L1231 638.819L1236.37 637.205L1230.99 636.344L1230.28 629.926Z" fill="#f1f1ef" fill-rule="nonzero" opacity="0.15" stroke="none"/>
<path d="M1084.34 623.75L1083.05 630.489L1077.73 632.162L1082.96 633.079L1083.76 640.307L1085.06 632.644L1090.43 631.03L1085.05 630.168L1084.34 623.75Z" fill="#f1f1ef" fill-rule="nonzero" opacity="0.15" stroke="none"/>
<path d="M1175.62 563.22L1174.34 569.958L1169.02 571.632L1174.24 572.549L1175.05 579.777L1176.34 572.114L1181.71 570.5L1176.33 569.638L1175.62 563.22Z" fill="#f1f1ef" fill-rule="nonzero" opacity="0.15" stroke="none"/>
<path d="M186.399 706.691L184.01 717.04L172.828 719.868L183.943 720.997L186.004 731.985L188.367 720.224L199.654 717.484L188.221 716.448L186.399 706.691Z" fill="#f1f1ef" fill-rule="nonzero" opacity="0.198077" stroke="none"/>
<path d="M252.154 750.786L249.765 761.134L238.583 763.962L249.698 765.092L251.759 776.079L254.122 764.319L265.409 761.578L253.976 760.542L252.154 750.786Z" fill="#f1f1ef" fill-rule="nonzero" opacity="0.198077" stroke="none"/>
<path d="M426.407 724.193L424.019 734.541L412.836 737.369L423.951 738.499L426.012 749.486L428.376 737.726L439.663 734.985L428.23 733.949L426.407 724.193Z" fill="#f1f1ef" fill-rule="nonzero" opacity="0.198077" stroke="none"/>
<path d="M312.338 692.701L309.949 703.05L298.767 705.878L309.882 707.007L311.943 717.995L314.306 706.234L325.593 703.494L314.16 702.458L312.338 692.701Z" fill="#f1f1ef" fill-rule="nonzero" opacity="0.198077" stroke="none"/>
<path d="M166.777 773.18L164.388 783.528L153.205 786.356L164.32 787.486L166.382 798.473L168.745 786.713L180.032 783.972L168.599 782.936L166.777 773.18Z" fill="#f1f1ef" fill-rule="nonzero" opacity="0.198077" stroke="none"/>
<path d="M87.4355 828.194L85.0469 838.542L73.8642 841.37L84.9793 842.5L87.0404 853.487L89.4037 841.727L100.691 838.986L89.2578 837.95L87.4355 828.194Z" fill="#f1f1ef" fill-rule="nonzero" opacity="0.198077" stroke="none"/>
<path d="M117.79 733.058L115.401 743.407L104.219 746.235L115.334 747.364L117.395 758.351L119.758 746.591L131.045 743.851L119.612 742.815L117.79 733.058Z" fill="#f1f1ef" fill-rule="nonzero" opacity="0.198077" stroke="none"/>
<path d="M55.23 674.57L52.8415 684.919L41.6588 687.747L52.7739 688.876L54.835 699.863L57.1982 688.103L68.4852 685.363L57.0524 684.327L55.23 674.57Z" fill="#f1f1ef" fill-rule="nonzero" opacity="0.198077" stroke="none"/>
<path d="M8.21749 778.96L5.82893 789.309L-5.35374 792.137L5.76132 793.266L7.82247 804.253L10.1857 792.493L21.4726 789.753L10.0399 788.717L8.21749 778.96Z" fill="#f1f1ef" fill-rule="nonzero" opacity="0.198077" stroke="none"/>
<path d="M471.195 809.57L468.807 819.918L457.624 822.747L468.739 823.876L470.8 834.863L473.164 823.103L484.451 820.363L473.018 819.327L471.195 809.57Z" fill="#f1f1ef" fill-rule="nonzero" opacity="0.198077" stroke="none"/>
<path d="M368.644 800.251L370.533 791.555L378.343 789.395L370.67 788.211L369.492 778.883L367.588 788.773L359.708 790.856L367.603 791.968L368.644 800.251Z" fill="#f1f1ef" fill-rule="nonzero" opacity="0.198077" stroke="none"/>
<path d="M317.115 856.726L319.005 848.03L326.814 845.871L319.142 844.686L317.964 835.358L316.06 845.249L308.18 847.331L316.075 848.443L317.115 856.726Z" fill="#f1f1ef" fill-rule="nonzero" opacity="0.198077" stroke="none"/>
<path d="M181.722 835.29L180.435 842.029L175.114 843.702L180.341 844.619L181.144 851.847L182.441 844.184L187.809 842.57L182.431 841.708L181.722 835.29Z" fill="#f1f1ef" fill-rule="nonzero" opacity="0.198077" stroke="none"/>
<path d="M72.802 780.242L71.5148 786.98L66.1945 788.653L71.4216 789.571L72.224 796.799L73.5212 789.135L78.8893 787.521L73.5109 786.66L72.802 780.242Z" fill="#f1f1ef" fill-rule="nonzero" opacity="0.198077" stroke="none"/>
<path d="M112.543 695.461L111.256 702.199L105.936 703.872L111.163 704.79L111.965 712.018L113.262 704.354L118.63 702.74L113.252 701.879L112.543 695.461Z" fill="#f1f1ef" fill-rule="nonzero" opacity="0.198077" stroke="none"/>
<path d="M12.9057 673.854L11.6184 680.593L6.29813 682.266L11.5252 683.183L12.3277 690.411L13.6248 682.748L18.993 681.134L13.6145 680.272L12.9057 673.854Z" fill="#f1f1ef" fill-rule="nonzero" opacity="0.198077" stroke="none"/>
<path d="M269.983 462.668L268.696 469.407L263.375 471.08L268.602 471.998L269.405 479.226L270.702 471.562L276.07 469.948L270.692 469.087L269.983 462.668Z" fill="#f1f1ef" fill-rule="nonzero" opacity="0.198077" stroke="none"/>
<path d="M288.721 544.557L287.434 551.296L282.114 552.969L287.341 553.887L288.143 561.115L289.441 553.451L294.809 551.837L289.43 550.976L288.721 544.557Z" fill="#f1f1ef" fill-rule="nonzero" opacity="0.198077" stroke="none"/>
<path d="M5.53017 818.471L4.24293 825.209L-1.07736 826.882L4.14975 827.8L4.95218 835.028L6.24934 827.364L11.6175 825.75L6.239 824.889L5.53017 818.471Z" fill="#f1f1ef" fill-rule="nonzero" opacity="0.198077" stroke="none"/>
<path d="M301.732 402.647L300.445 409.386L295.125 411.059L300.352 411.977L301.154 419.205L302.452 411.541L307.82 409.927L302.441 409.065L301.732 402.647Z" fill="#f1f1ef" fill-rule="nonzero" opacity="0.198077" stroke="none"/>
<path d="M194.358 490.875L193.071 497.613L187.75 499.286L192.977 500.204L193.78 507.432L195.077 499.768L200.445 498.154L195.067 497.293L194.358 490.875Z" fill="#f1f1ef" fill-rule="nonzero" opacity="0.198077" stroke="none"/>
<path d="M155.792 396.472L154.504 403.21L149.184 404.883L154.411 405.801L155.214 413.029L156.511 405.365L161.879 403.751L156.5 402.89L155.792 396.472Z" fill="#f1f1ef" fill-rule="nonzero" opacity="0.198077" stroke="none"/>
<path d="M247.076 335.942L245.789 342.68L240.469 344.353L245.696 345.271L246.498 352.499L247.796 344.835L253.164 343.221L247.785 342.36L247.076 335.942Z" fill="#f1f1ef" fill-rule="nonzero" opacity="0.198077" stroke="none"/>
<path d="M566.715 4.78927L565.428 11.5277L560.107 13.2008L565.334 14.1184L566.137 21.3465L567.434 13.6829L572.802 12.0689L567.424 11.2074L566.715 4.78927Z" fill="#f1f1ef" fill-rule="nonzero" opacity="0.198077" stroke="none"/>
<path d="M-32.2997 608.424L-33.5869 615.162L-38.9072 616.835L-33.6801 617.753L-32.8777 624.981L-31.5805 617.317L-26.2124 615.703L-31.5908 614.842L-32.2997 608.424Z" fill="#f1f1ef" fill-rule="nonzero" opacity="0.198077" stroke="none"/>
<path d="M9.74478 133.487L7.35622 143.835L-3.82645 146.663L7.28861 147.793L9.34976 158.78L11.713 147.02L22.9999 144.279L11.5672 143.243L9.74478 133.487Z" fill="#f1f1ef" fill-rule="nonzero" opacity="0.103846" stroke="none"/>
<path d="M75.4998 177.581L73.1113 187.93L61.9286 190.758L73.0437 191.887L75.1048 202.874L77.468 191.114L88.755 188.374L77.3222 187.338L75.4998 177.581Z" fill="#f1f1ef" fill-rule="nonzero" opacity="0.103846" stroke="none"/>
<path d="M249.753 150.988L247.365 161.337L236.182 164.165L247.297 165.295L249.358 176.282L251.722 164.521L263.009 161.781L251.576 160.745L249.753 150.988Z" fill="#f1f1ef" fill-rule="nonzero" opacity="0.198077" stroke="none"/>
<path d="M141.982 232.167L139.594 242.515L128.411 245.343L139.526 246.473L141.587 257.46L143.95 245.7L155.237 242.959L143.804 241.923L141.982 232.167Z" fill="#f1f1ef" fill-rule="nonzero" opacity="0.103846" stroke="none"/>
<path d="M135.684 119.497L133.295 129.845L122.113 132.673L133.228 133.803L135.289 144.79L137.652 133.03L148.939 130.289L137.506 129.253L135.684 119.497Z" fill="#f1f1ef" fill-rule="nonzero" opacity="0.103846" stroke="none"/>
<path d="M-9.87741 199.975L-12.266 210.324L-23.4486 213.152L-12.3336 214.281L-10.2724 225.269L-7.90921 213.508L3.37774 210.768L-8.05503 209.732L-9.87741 199.975Z" fill="#f1f1ef" fill-rule="nonzero" opacity="0.103846" stroke="none"/>
<path d="M46.3402 535.295L43.9517 545.643L32.769 548.471L43.884 549.601L45.9452 560.588L48.3084 548.828L59.5954 546.087L48.1626 545.051L46.3402 535.295Z" fill="#f1f1ef" fill-rule="nonzero" opacity="0.103846" stroke="none"/>
<path d="M76.6948 440.159L74.3062 450.507L63.1235 453.336L74.2386 454.465L76.2997 465.452L78.663 453.692L89.9499 450.952L78.5171 449.915L76.6948 440.159Z" fill="#f1f1ef" fill-rule="nonzero" opacity="0.103846" stroke="none"/>
<path d="M1900.8 688.487L1898.41 698.835L1887.23 701.663L1898.34 702.793L1900.4 713.78L1902.77 702.019L1914.05 699.279L1902.62 698.243L1900.8 688.487Z" fill="#f1f1ef" fill-rule="nonzero" opacity="0.103846" stroke="none"/>
<path d="M1853.79 792.877L1851.4 803.225L1840.22 806.053L1851.33 807.183L1853.39 818.17L1855.75 806.409L1867.04 803.669L1855.61 802.633L1853.79 792.877Z" fill="#f1f1ef" fill-rule="nonzero" opacity="0.103846" stroke="none"/>
<path d="M294.541 236.366L292.153 246.714L280.97 249.542L292.085 250.672L294.146 261.659L296.51 249.898L307.797 247.158L296.364 246.122L294.541 236.366Z" fill="#f1f1ef" fill-rule="nonzero" opacity="0.198077" stroke="none"/>
<path d="M851.464 14.6954L849.076 25.0436L837.893 27.8718L849.008 29.0014L851.069 39.9885L853.433 28.2282L864.72 25.4878L853.287 24.4517L851.464 14.6954Z" fill="#f1f1ef" fill-rule="nonzero" opacity="0.198077" stroke="none"/>
<path d="M191.99 227.046L193.879 218.35L201.689 216.191L194.016 215.007L192.838 205.678L190.934 215.569L183.054 217.652L190.949 218.763L191.99 227.046Z" fill="#f1f1ef" fill-rule="nonzero" opacity="0.198077" stroke="none"/>
<path d="M140.461 283.522L142.351 274.825L150.16 272.666L142.488 271.482L141.31 262.154L139.406 272.044L131.526 274.127L139.421 275.239L140.461 283.522Z" fill="#f1f1ef" fill-rule="nonzero" opacity="0.103846" stroke="none"/>
<path d="M5.0679 262.086L3.78065 268.824L-1.53963 270.497L3.68747 271.415L4.48991 278.643L5.78706 270.979L11.1552 269.365L5.77673 268.504L5.0679 262.086Z" fill="#f1f1ef" fill-rule="nonzero" opacity="0.103846" stroke="none"/>
<path d="M1918.37 794.158L1917.08 800.896L1911.76 802.57L1916.99 803.487L1917.79 810.715L1919.09 803.052L1924.46 801.438L1919.08 800.576L1918.37 794.158Z" fill="#f1f1ef" fill-rule="nonzero" opacity="0.103846" stroke="none"/>
<path d="M71.4478 402.562L70.1606 409.3L64.8403 410.973L70.0674 411.891L70.8698 419.119L72.167 411.455L77.5351 409.841L72.1566 408.98L71.4478 402.562Z" fill="#f1f1ef" fill-rule="nonzero" opacity="0.103846" stroke="none"/>
<path d="M1858.47 687.771L1857.19 694.509L1851.87 696.182L1857.09 697.1L1857.9 704.328L1859.19 696.664L1864.56 695.05L1859.18 694.189L1858.47 687.771Z" fill="#f1f1ef" fill-rule="nonzero" opacity="0.103846" stroke="none"/>
<path d="M1764.1 803.863L1762.81 810.602L1757.49 812.275L1762.72 813.192L1763.52 820.42L1764.82 812.757L1770.19 811.143L1764.81 810.281L1764.1 803.863Z" fill="#f1f1ef" fill-rule="nonzero" opacity="0.123077" stroke="none"/>
<path d="M1851.1 832.387L1849.81 839.126L1844.49 840.799L1849.72 841.716L1850.52 848.944L1851.82 841.281L1857.19 839.667L1851.81 838.805L1851.1 832.387Z" fill="#f1f1ef" fill-rule="nonzero" opacity="0.103846" stroke="none"/>
<path d="M1795.85 743.842L1794.56 750.58L1789.24 752.254L1794.47 753.171L1795.27 760.399L1796.57 752.736L1801.94 751.122L1796.56 750.26L1795.85 743.842Z" fill="#f1f1ef" fill-rule="nonzero" opacity="0.123077" stroke="none"/>
<path d="M1688.47 832.07L1687.19 838.808L1681.87 840.481L1687.09 841.399L1687.9 848.627L1689.19 840.963L1694.56 839.349L1689.18 838.488L1688.47 832.07Z" fill="#f1f1ef" fill-rule="nonzero" opacity="0.123077" stroke="none"/>
<path d="M1649.91 737.666L1648.62 744.405L1643.3 746.078L1648.53 746.996L1649.33 754.224L1650.63 746.56L1656 744.946L1650.62 744.085L1649.91 737.666Z" fill="#f1f1ef" fill-rule="nonzero" opacity="0.123077" stroke="none"/>
<path d="M1741.19 677.136L1739.91 683.875L1734.59 685.548L1739.81 686.466L1740.62 693.694L1741.91 686.03L1747.28 684.416L1741.9 683.555L1741.19 677.136Z" fill="#f1f1ef" fill-rule="nonzero" opacity="0.123077" stroke="none"/>
<path d="M1813.27 622.34L1811.98 629.078L1806.66 630.752L1811.89 631.669L1812.69 638.897L1813.99 631.234L1819.36 629.62L1813.98 628.758L1813.27 622.34Z" fill="#f1f1ef" fill-rule="nonzero" opacity="0.123077" stroke="none"/>
<path d="M1306.4 760.608L1304.01 770.956L1292.83 773.784L1303.94 774.914L1306 785.901L1308.37 774.141L1319.65 771.4L1308.22 770.364L1306.4 760.608Z" fill="#f1f1ef" fill-rule="nonzero" opacity="0.15" stroke="none"/>
<path d="M1546.41 778.109L1544.02 788.458L1532.84 791.286L1543.95 792.415L1546.01 803.402L1548.38 791.642L1559.66 788.902L1548.23 787.866L1546.41 778.109Z" fill="#f1f1ef" fill-rule="nonzero" opacity="0.123077" stroke="none"/>
<path d="M1237.79 786.975L1235.4 797.323L1224.22 800.151L1235.33 801.281L1237.39 812.268L1239.76 800.507L1251.05 797.767L1239.61 796.731L1237.79 786.975Z" fill="#f1f1ef" fill-rule="nonzero" opacity="0.15" stroke="none"/>
<path d="M1175.23 728.487L1172.84 738.835L1161.66 741.663L1172.77 742.793L1174.84 753.78L1177.2 742.019L1188.49 739.279L1177.05 738.243L1175.23 728.487Z" fill="#f1f1ef" fill-rule="nonzero" opacity="0.15" stroke="none"/>
<path d="M1488.64 854.167L1490.53 845.471L1498.34 843.312L1490.67 842.127L1489.49 832.799L1487.59 842.69L1479.71 844.772L1487.6 845.884L1488.64 854.167Z" fill="#f1f1ef" fill-rule="nonzero" opacity="0.123077" stroke="none"/>
<path d="M1192.8 834.158L1191.51 840.896L1186.19 842.57L1191.42 843.487L1192.22 850.715L1193.52 843.052L1198.89 841.438L1193.51 840.576L1192.8 834.158Z" fill="#f1f1ef" fill-rule="nonzero" opacity="0.15" stroke="none"/>
<path d="M1232.54 749.377L1231.26 756.115L1225.94 757.789L1231.16 758.706L1231.97 765.934L1233.26 758.271L1238.63 756.657L1233.25 755.795L1232.54 749.377Z" fill="#f1f1ef" fill-rule="nonzero" opacity="0.15" stroke="none"/>
<path d="M1132.91 727.771L1131.62 734.509L1126.3 736.182L1131.53 737.1L1132.33 744.328L1133.62 736.664L1138.99 735.05L1133.61 734.189L1132.91 727.771Z" fill="#f1f1ef" fill-rule="nonzero" opacity="0.15" stroke="none"/>
<path d="M1038.53 843.863L1037.24 850.602L1031.92 852.275L1037.15 853.192L1037.95 860.42L1039.25 852.757L1044.62 851.143L1039.24 850.281L1038.53 843.863Z" fill="#f1f1ef" fill-rule="nonzero" opacity="0.15" stroke="none"/>
<path d="M1087.7 662.34L1086.41 669.078L1081.09 670.752L1086.32 671.669L1087.12 678.897L1088.42 671.234L1093.79 669.62L1088.41 668.758L1087.7 662.34Z" fill="#f1f1ef" fill-rule="nonzero" opacity="0.15" stroke="none"/>
</g>
</svg>
