<?xml version="1.0" encoding="UTF-8" standalone="no"?>
<!DOCTYPE svg PUBLIC "-//W3C//DTD SVG 1.1//EN" "http://www.w3.org/Graphics/SVG/1.1/DTD/svg11.dtd">
<!-- Created with Vectornator (http://vectornator.io/) -->
<svg height="100%" stroke-miterlimit="10" style="fill-rule:nonzero;clip-rule:evenodd;stroke-linecap:round;stroke-linejoin:round;" version="1.1" viewBox="0 0 1920 1080" width="100%" xml:space="preserve" xmlns="http://www.w3.org/2000/svg" xmlns:xlink="http://www.w3.org/1999/xlink">
<defs/>
<clipPath id="ArtboardFrame">
<rect height="1080" width="1920" x="0" y="0"/>
</clipPath>
<g clip-path="url(#ArtboardFrame)" id="Layer-1">
<g opacity="1">
<path d="M2.88343 739.034C2.88343 739.034 62.9222 714.561 373.378 708.36C506.926 705.693 663.372 724.694 826.685 725.686C1172.07 727.784 1523.84 717.597 1583.89 731.002C1738.35 765.479 1920.64 750.503 1920.64 750.503L1926.55 1090.07L-23.1527 1122L2.88343 739.034Z" fill="#bfbfbf" fill-rule="nonzero" opacity="1" stroke="none"/>
<path d="M2.88343 739.034C2.88343 739.034 62.9222 714.561 373.378 708.36C506.926 705.693 663.372 724.694 826.685 725.686C889.028 726.065 951.58 726.043 1012.59 725.832C1289.56 724.875 1534.68 720.017 1583.89 731.002C1738.35 765.479 1920.64 750.503 1920.64 750.503L1920.44 766.651C1920.44 766.651 1833.93 768.35 1748.19 766.917C1683.89 765.843 1676.67 749.173 1579.78 745.535C1388.05 738.335 1207.08 745.24 1035 747.644C961.161 748.676 901.166 749.951 822.588 747.165C618.15 739.915 520.661 728.889 376.798 727.844C72.5229 725.636 0.524897 788.653 0.524897 788.653L2.88343 739.034Z" fill="#000000" fill-rule="nonzero" opacity="0.175" stroke="none"/>
</g>
<path d="M2067.64 781.275L1847.51 1040.8L1873.18 932.427L1756.55 1021.87L1755.78 944.638L1632.54 1039.88L1680 918.409L1151.93 1179.12L1117.99 1006.49L1007.26 1106.8L1021.33 1031.6L960 1080.57L969.591 918.409L849.001 1080L855.355 939.209L742.042 1046.51L755.354 944.638L599.506 1102.05L623.075 954.792L574.335 1004.1L566.642 918.409L399.328 1080.57L408.757 918.409L240 1080L267.394 954.792L110.262 1126.29L115.987 1031.33L0 1152.4L31.089 1019.37L-70.3596 1126.29L-96.3596 783.292L2067.64 781.275Z" fill="#000000" fill-rule="nonzero" opacity="0.282692" stroke="none"/>
<g opacity="1">
<path d="M481.2 408.529L592.174 806.538L348.798 806.538L481.2 408.529Z" fill="#091108" fill-rule="nonzero" opacity="1" stroke="none"/>
<path d="M289.704 466.547L376.798 806.538L185.793 806.538L289.704 466.547Z" fill="#10200e" fill-rule="nonzero" opacity="1" stroke="none"/>
<path d="M1385.75 471.966L1472.84 781.575L1281.83 781.575L1385.75 471.966Z" fill="#10200e" fill-rule="nonzero" opacity="1" stroke="none"/>
<path d="M385.207 407.111L472.301 735.519L281.296 735.519L385.207 407.111Z" fill="#1a2a17" fill-rule="nonzero" opacity="1" stroke="none"/>
<path d="M437.577 500.929L524.672 810.538L333.667 810.538L437.577 500.929Z" fill="#111f0f" fill-rule="nonzero" opacity="1" stroke="none"/>
<path d="M671.714 466.547L758.809 776.157L567.803 776.157L671.714 466.547Z" fill="#142212" fill-rule="nonzero" opacity="1" stroke="none"/>
<path d="M533.08 443.109L620.174 752.719L429.169 752.719L533.08 443.109Z" fill="#132011" fill-rule="nonzero" opacity="1" stroke="none"/>
<path d="M576.212 500.929L663.306 810.538L472.301 810.538L576.212 500.929Z" fill="#172e14" fill-rule="nonzero" opacity="1" stroke="none"/>
<path d="M831.789 466.547L918.883 806.538L727.878 806.538L831.789 466.547Z" fill="#1d311a" fill-rule="nonzero" opacity="1" stroke="none"/>
<path d="M927.292 500.929L1014.39 831.147L823.381 831.147L927.292 500.929Z" fill="#162314" fill-rule="nonzero" opacity="1" stroke="none"/>
<path d="M767.217 540.268L854.311 849.877L663.306 849.877L767.217 540.268Z" fill="#173013" fill-rule="nonzero" opacity="1" stroke="none"/>
<path d="M194.201 526.835L281.296 836.444L90.2907 836.444L194.201 526.835Z" fill="#0e1c0c" fill-rule="nonzero" opacity="1" stroke="none"/>
<path d="M135.387 511.963L207.799 821.572L48.9949 821.572L135.387 511.963Z" fill="#172815" fill-rule="nonzero" opacity="1" stroke="none"/>
<path d="M17.8794 621.352L90.2907 849.685L-68.5131 849.685L17.8794 621.352Z" fill="#1d3319" fill-rule="nonzero" opacity="1" stroke="none"/>
<path d="M77.7271 511.963L164.822 855.104L-26.1836 855.104L77.7271 511.963Z" fill="#183314" fill-rule="nonzero" opacity="1" stroke="none"/>
<path d="M452.26 615.852L524.672 844.186L365.868 844.186L452.26 615.852Z" fill="#111f0f" fill-rule="nonzero" opacity="1" stroke="none"/>
<path d="M326.393 638.552L398.804 866.885L240 866.885L326.393 638.552Z" fill="#273d23" fill-rule="nonzero" opacity="1" stroke="none"/>
<path d="M640.784 590.834L727.878 842.606L536.873 842.606L640.784 590.834Z" fill="#273d23" fill-rule="nonzero" opacity="1" stroke="none"/>
<path d="M982.763 517.381L1069.86 826.99L878.853 826.99L982.763 517.381Z" fill="#183314" fill-rule="nonzero" opacity="1" stroke="none"/>
<path d="M1096.04 466.547L1217.73 814.857L974.355 814.857L1096.04 466.547Z" fill="#091108" fill-rule="nonzero" opacity="1" stroke="none"/>
<path d="M1040.42 517.381L1112.83 841.862L954.031 841.862L1040.42 517.381Z" fill="#172815" fill-rule="nonzero" opacity="1" stroke="none"/>
<path d="M1099.24 532.253L1186.33 841.862L995.327 841.862L1099.24 532.253Z" fill="#0e1c0c" fill-rule="nonzero" opacity="1" stroke="none"/>
<path d="M922.916 626.77L995.327 855.104L836.523 855.104L922.916 626.77Z" fill="#1d3319" fill-rule="nonzero" opacity="1" stroke="none"/>
<path d="M1672.25 477.135L1759.35 786.744L1568.34 786.744L1672.25 477.135Z" fill="#173013" fill-rule="nonzero" opacity="1" stroke="none"/>
<path d="M1788.76 452.729L1875.85 786.744L1684.85 786.744L1788.76 452.729Z" fill="#162314" fill-rule="nonzero" opacity="1" stroke="none"/>
<path d="M1730.56 468.601L1817.65 808.592L1626.65 808.592L1730.56 468.601Z" fill="#1d311a" fill-rule="nonzero" opacity="1" stroke="none"/>
<path d="M1481.25 471.966L1568.34 781.575L1377.34 781.575L1481.25 471.966Z" fill="#172e14" fill-rule="nonzero" opacity="1" stroke="none"/>
<path d="M1407.75 514.225L1494.85 797.457L1303.84 797.457L1407.75 514.225Z" fill="#0a1109" fill-rule="nonzero" opacity="1" stroke="none"/>
<path d="M1597.75 416.848L1684.85 786.744L1493.84 786.744L1597.75 416.848Z" fill="#142212" fill-rule="nonzero" opacity="1" stroke="none"/>
<path d="M1290.24 412.529L1377.34 740.937L1186.33 740.937L1290.24 412.529Z" fill="#1a2a17" fill-rule="nonzero" opacity="1" stroke="none"/>
<path d="M1545.82 545.686L1632.91 797.457L1441.91 797.457L1545.82 545.686Z" fill="#273d23" fill-rule="nonzero" opacity="1" stroke="none"/>
<path d="M1863.26 506.054L1950.35 786.744L1759.35 786.744L1863.26 506.054Z" fill="#273d23" fill-rule="nonzero" opacity="1" stroke="none"/>
<path d="M1194.74 471.966L1281.83 781.575L1090.83 781.575L1194.74 471.966Z" fill="#10200e" fill-rule="nonzero" opacity="1" stroke="none"/>
<path d="M1461.37 501.675L1548.46 811.284L1357.46 811.284L1461.37 501.675Z" fill="#10200e" fill-rule="nonzero" opacity="1" stroke="none"/>
<path d="M1328.35 521.538L1415.44 831.147L1224.44 831.147L1328.35 521.538Z" fill="#111f0f" fill-rule="nonzero" opacity="1" stroke="none"/>
<path d="M1231.43 615.852L1303.84 844.186L1145.04 844.186L1231.43 615.852Z" fill="#273d23" fill-rule="nonzero" opacity="1" stroke="none"/>
</g>
</g>
</svg>
