<?xml version="1.0" encoding="UTF-8" standalone="no"?>
<!DOCTYPE svg PUBLIC "-//W3C//DTD SVG 1.1//EN" "http://www.w3.org/Graphics/SVG/1.1/DTD/svg11.dtd">
<!-- Created with Vectornator (http://vectornator.io/) -->
<svg height="100%" stroke-miterlimit="10" style="fill-rule:nonzero;clip-rule:evenodd;stroke-linecap:round;stroke-linejoin:round;" version="1.1" viewBox="0 0 1920 1080" width="100%" xml:space="preserve" xmlns="http://www.w3.org/2000/svg" xmlns:vectornator="http://vectornator.io" xmlns:xlink="http://www.w3.org/1999/xlink">
<defs/>
<g id="Layer-1" vectornator:layerName="Layer 1">
<path d="M1755.93 451.552L1752.74 465.907L1737.82 469.83L1752.65 471.397L1755.4 486.638L1758.55 470.325L1773.61 466.523L1758.36 465.086L1755.93 451.552Z" fill="#f1f1ef" fill-rule="nonzero" opacity="0.123077" stroke="none"/>
<path d="M1879.24 487.32L1874.9 506.969L1854.58 512.34L1874.78 514.485L1878.52 535.348L1882.82 513.016L1903.33 507.813L1882.55 505.845L1879.24 487.32Z" fill="#f1f1ef" fill-rule="nonzero" opacity="0.103846" stroke="none"/>
<path d="M1755.93 451.552L1752.74 465.907L1737.82 469.83L1752.65 471.397L1755.4 486.638L1758.55 470.325L1773.61 466.523L1758.36 465.086L1755.93 451.552Z" fill="#f1f1ef" fill-rule="nonzero" opacity="0.123077" stroke="none"/>
<path d="M1879.24 487.32L1874.9 506.969L1854.58 512.34L1874.78 514.485L1878.52 535.348L1882.82 513.016L1903.33 507.813L1882.55 505.845L1879.24 487.32Z" fill="#f1f1ef" fill-rule="nonzero" opacity="0.103846" stroke="none"/>
<path d="M1170.33 409.348L1167.15 423.703L1152.22 427.626L1167.06 429.193L1169.81 444.434L1172.96 428.12L1188.02 424.319L1172.76 422.882L1170.33 409.348Z" fill="#f1f1ef" fill-rule="nonzero" opacity="0.15" stroke="none"/>
<path d="M1293.65 445.115L1289.31 464.765L1268.99 470.135L1289.18 472.28L1292.93 493.143L1297.22 470.812L1317.73 465.608L1296.96 463.641L1293.65 445.115Z" fill="#f1f1ef" fill-rule="nonzero" opacity="0.15" stroke="none"/>
<path d="M1632.77 945.611L1628.43 965.261L1608.11 970.631L1628.31 972.776L1632.05 993.639L1636.35 971.308L1656.86 966.105L1636.08 964.137L1632.77 945.611Z" fill="#f1f1ef" fill-rule="nonzero" opacity="0.15" stroke="none"/>
<path d="M1409.43 70.4622L1406.24 84.8169L1391.32 88.7402L1406.15 90.3072L1408.9 105.548L1412.05 89.2345L1427.11 85.4331L1411.86 83.9958L1409.43 70.4622Z" fill="#f1f1ef" fill-rule="nonzero" opacity="0.169231" stroke="none"/>
<path d="M1325.41 888.336L1322.22 902.691L1307.3 906.614L1322.13 908.181L1324.88 923.422L1328.04 907.108L1343.1 903.307L1327.84 901.87L1325.41 888.336Z" fill="#f1f1ef" fill-rule="nonzero" opacity="0.169231" stroke="none"/>
<path d="M913.647 451.199L909.307 470.849L888.988 476.219L909.184 478.364L912.929 499.227L917.223 476.896L937.732 471.692L916.958 469.725L913.647 451.199Z" fill="#f1f1ef" fill-rule="nonzero" opacity="0.169231" stroke="none"/>
<path d="M1350.33 615.432L1347.15 629.786L1332.22 633.71L1347.06 635.277L1349.81 650.518L1352.96 634.204L1368.02 630.403L1352.76 628.965L1350.33 615.432Z" fill="#f1f1ef" fill-rule="nonzero" opacity="0.15" stroke="none"/>
<path d="M742.168 970.415L738.981 984.77L724.06 988.693L738.891 990.26L741.641 1005.5L744.794 989.187L759.855 985.386L744.6 983.949L742.168 970.415Z" fill="#f1f1ef" fill-rule="nonzero" opacity="0.15" stroke="none"/>
<path d="M788.475 618.153L787.187 624.892L781.867 626.565L787.094 627.482L787.897 634.71L789.194 627.047L794.562 625.433L789.183 624.571L788.475 618.153Z" fill="#f1f1ef" fill-rule="nonzero" opacity="0.169231" stroke="none"/>
<path d="M990.333 789.348L987.146 803.703L972.225 807.626L987.056 809.193L989.806 824.434L992.959 808.12L1008.02 804.319L992.765 802.882L990.333 789.348Z" fill="#f1f1ef" fill-rule="nonzero" opacity="0.15" stroke="none"/>
<path d="M824.764 669.348L821.577 683.703L806.656 687.626L821.487 689.193L824.237 704.434L827.39 688.12L842.451 684.319L827.196 682.882L824.764 669.348Z" fill="#f1f1ef" fill-rule="nonzero" opacity="0.169231" stroke="none"/>
<path d="M933.647 245.115L929.307 264.765L908.988 270.135L929.184 272.28L932.929 293.143L937.223 270.812L957.732 265.608L936.958 263.641L933.647 245.115Z" fill="#f1f1ef" fill-rule="nonzero" opacity="0.198077" stroke="none"/>
<path d="M1608.08 271.199L1603.74 290.849L1583.42 296.219L1603.61 298.364L1607.36 319.227L1611.65 296.896L1632.16 291.692L1611.39 289.725L1608.08 271.199Z" fill="#f1f1ef" fill-rule="nonzero" opacity="0.123077" stroke="none"/>
<path d="M225.932 1026.45L221.592 1046.1L201.273 1051.47L221.469 1053.62L225.214 1074.48L229.508 1052.15L250.017 1046.94L229.243 1044.98L225.932 1026.45Z" fill="#f1f1ef" fill-rule="nonzero" opacity="0.103846" stroke="none"/>
<path d="M1878.11 489.377L1876.83 496.115L1871.5 497.789L1876.73 498.706L1877.53 505.934L1878.83 498.271L1884.2 496.657L1878.82 495.795L1878.11 489.377Z" fill="#f1f1ef" fill-rule="nonzero" opacity="0.103846" stroke="none"/>
<path d="M271.424 57.9943L267.084 77.644L246.765 83.0144L266.961 85.1594L270.706 106.022L275 83.6911L295.508 78.4875L274.735 76.52L271.424 57.9943Z" fill="#f1f1ef" fill-rule="nonzero" opacity="0.198077" stroke="none"/>
<path d="M1684.76 715.432L1681.58 729.786L1666.66 733.71L1681.49 735.277L1684.24 750.518L1687.39 734.204L1702.45 730.403L1687.2 728.965L1684.76 715.432Z" fill="#f1f1ef" fill-rule="nonzero" opacity="0.123077" stroke="none"/>
<path d="M1808.08 751.199L1803.74 770.849L1783.42 776.219L1803.61 778.364L1807.36 799.227L1811.65 776.896L1832.16 771.692L1811.39 769.725L1808.08 751.199Z" fill="#f1f1ef" fill-rule="nonzero" opacity="0.123077" stroke="none"/>
<path d="M228.11 242.227L224.923 256.582L210.002 260.505L224.833 262.072L227.583 277.313L230.736 260.999L245.797 257.198L230.542 255.761L228.11 242.227Z" fill="#f1f1ef" fill-rule="nonzero" opacity="0.198077" stroke="none"/>
<path d="M785.033 20.5568L781.846 34.9116L766.925 38.8349L781.756 40.4018L784.506 55.6429L787.659 39.3292L802.72 35.5278L787.465 34.0905L785.033 20.5568Z" fill="#f1f1ef" fill-rule="nonzero" opacity="0.198077" stroke="none"/>
<path d="M351.424 277.994L347.084 297.644L326.765 303.014L346.961 305.159L350.706 326.022L355 303.691L375.508 298.488L354.735 296.52L351.424 277.994Z" fill="#f1f1ef" fill-rule="nonzero" opacity="0.198077" stroke="none"/>
<path d="M908.347 56.324L904.007 75.9737L883.688 81.3441L903.884 83.4891L907.629 104.352L911.923 82.0208L932.431 76.8172L911.658 74.8497L908.347 56.324Z" fill="#f1f1ef" fill-rule="nonzero" opacity="0.198077" stroke="none"/>
</g>
</svg>
