<?xml version="1.0" encoding="UTF-8" standalone="no"?>
<!DOCTYPE svg PUBLIC "-//W3C//DTD SVG 1.1//EN" "http://www.w3.org/Graphics/SVG/1.1/DTD/svg11.dtd">
<!-- Created with Vectornator (http://vectornator.io/) -->
<svg height="100%" stroke-miterlimit="10" style="fill-rule:nonzero;clip-rule:evenodd;stroke-linecap:round;stroke-linejoin:round;" version="1.1" viewBox="0 0 1280 960" width="100%" xml:space="preserve" xmlns="http://www.w3.org/2000/svg" xmlns:vectornator="http://vectornator.io" xmlns:xlink="http://www.w3.org/1999/xlink">
<defs>
<filter color-interpolation-filters="sRGB" filterUnits="userSpaceOnUse" height="750.668" id="Filter" width="885.789" x="168.371" y="158.126">
<feDropShadow dx="-28.7342" dy="20.4598" flood-color="#ffffff" flood-opacity="0.4" in="SourceGraphic" result="Shadow" stdDeviation="18"/>
</filter>
<filter color-interpolation-filters="sRGB" filterUnits="userSpaceOnUse" height="94.9706" id="Filter_2" width="106.309" x="888.51" y="453.312">
<feDropShadow dx="-28.7342" dy="20.4598" flood-color="#ffffff" flood-opacity="1" in="SourceGraphic" result="Shadow" stdDeviation="17.8425"/>
</filter>
</defs>
<g id="Layer-1" vectornator:layerName="Layer 1">
<g filter="url(#Filter)" vectornator:shadowAngle="2.52283" vectornator:shadowColor="#ffffff" vectornator:shadowOffset="35.274" vectornator:shadowOpacity="0.4" vectornator:shadowRadius="36">
<path d="M961.851 483.217L978.947 477.459L978.947 477.459L961.851 483.217L961.851 483.217Z" fill="#ffffff" fill-opacity="0.333333" fill-rule="nonzero" filter="url(#Filter_2)" stroke="none" vectornator:shadowAngle="2.52283" vectornator:shadowColor="#ffffff" vectornator:shadowOffset="35.274" vectornator:shadowOpacity="1" vectornator:shadowRadius="35.6849"/>
<path d="M260.228 236.257C249.662 236.838 241.554 245.885 242.135 256.454C245.452 316.822 251.986 435.732 255.404 497.926C277.278 496.724 315.87 494.604 336.025 493.496C336.6 493.464 337.165 493.573 337.694 493.798C348.688 498.456 355.331 508.261 355.743 518.62C355.875 521.937 354.998 525.137 353.876 528.324C352.746 531.53 351.323 534.828 349.947 538.456C347.197 545.705 344.669 554.17 345.271 565.078C345.672 572.348 348.416 577.732 355.463 581.556C362.719 585.494 375.11 587.717 394.621 586.645C414.123 585.573 426.199 582.009 432.985 577.296C439.592 572.708 441.706 567.041 441.31 559.8C440.714 548.892 437.272 540.753 433.746 533.851C431.98 530.396 430.204 527.274 428.73 524.211C427.265 521.165 426.043 518.079 425.811 514.77C425.085 504.431 430.614 493.955 441.031 488.119C441.533 487.838 442.082 487.668 442.657 487.637C460.988 486.629 495.931 484.709 515.981 483.607C513.902 452.781 510.101 396.487 508.142 367.443C508.102 366.853 508.211 366.279 508.442 365.735C513.1 354.741 522.905 348.098 533.264 347.686C536.582 347.555 539.742 348.433 542.929 349.556C546.135 350.685 549.472 352.107 553.1 353.483C560.349 356.233 568.814 358.76 579.722 358.158C586.992 357.757 592.376 355.014 596.2 347.966C600.138 340.71 602.361 328.319 601.289 308.809C600.217 289.306 596.651 277.191 591.938 270.405C587.35 263.798 581.685 261.723 574.444 262.119C563.536 262.716 555.397 266.157 548.495 269.684C545.04 271.449 541.879 273.227 538.815 274.701C535.769 276.167 532.723 277.387 529.414 277.618C519.063 278.345 508.592 272.768 502.761 262.359C502.458 261.817 502.282 261.198 502.27 260.576C502.093 251.174 501.75 233.998 501.543 222.997C497.427 223.223 492.539 223.492 489.538 223.657C432.21 226.807 317.555 233.107 260.228 236.257Z" fill="#ffffff" fill-opacity="0.333333" fill-rule="nonzero" opacity="1" stroke="none"/>
<path d="M626.507 260.903C629.54 271.114 634.201 286.839 636.954 296.107C643.355 302.179 651.56 303.78 658.23 301.421C659.874 300.839 661.821 299.527 664.095 297.538C666.353 295.564 668.896 292.987 671.912 290.22C677.949 284.681 685.902 278.374 697.607 274.435C706.42 271.469 715.608 272.239 723.901 279.136C732.01 285.881 739.06 297.925 745.489 317.014C751.921 336.111 753.591 349.964 751.216 360.235C748.792 370.718 741.965 376.905 733.124 379.886C721.421 383.831 711.275 383.621 703.115 382.862C699.04 382.484 695.456 381.971 692.463 381.765C689.451 381.558 687.108 381.69 685.445 382.222C678.679 384.387 673.088 390.61 671.682 399.337C681.405 427.058 699.769 479.368 709.894 508.234C729.503 501.629 763.493 490.181 781.982 483.954C788.079 477.554 789.639 469.299 787.27 462.604C786.689 460.96 785.388 459.05 783.4 456.776C781.426 454.518 778.849 451.975 776.082 448.959C770.544 442.922 764.236 434.969 760.297 423.264C757.33 414.447 758.08 405.226 764.986 396.933C771.74 388.822 783.825 381.798 802.914 375.369C822.011 368.937 835.863 367.267 846.135 369.642C856.618 372.066 862.805 378.893 865.785 387.734C869.73 399.437 869.52 409.583 868.762 417.743C868.383 421.818 867.87 425.402 867.664 428.395C867.457 431.407 867.576 433.713 868.109 435.376C870.274 442.142 876.51 447.769 885.236 449.176C903.715 442.952 937.672 431.515 957.287 424.909C937.405 365.88 899.393 253.02 880.095 195.723C876.717 185.696 865.835 180.294 855.804 183.673C801.393 201.999 692.572 238.651 638.161 256.977C635.248 257.959 630.449 259.575 626.507 260.903Z" fill="#ffffff" fill-opacity="0.333333" fill-rule="nonzero" opacity="1" stroke="none"/>
<path d="M457.833 601.091C477.715 660.12 515.727 772.98 535.025 830.277C538.403 840.305 549.285 845.706 559.317 842.327C613.727 824.001 722.548 787.349 776.959 769.023C779.845 768.051 784.574 766.458 788.502 765.135C782.23 746.514 771.317 714.113 765.589 697.105C765.405 696.56 765.359 695.987 765.434 695.416C766.992 683.578 774.67 674.561 784.543 671.401C787.706 670.389 791.023 670.38 794.394 670.612C797.786 670.846 801.344 671.338 805.207 671.697C812.927 672.414 821.76 672.593 832.111 669.103C839.008 666.778 843.47 662.708 845.275 654.885C847.132 646.831 845.96 634.269 839.723 615.751C833.488 597.241 826.832 586.553 820.48 581.27C814.296 576.126 808.27 575.6 801.398 577.913C791.044 581.397 784.117 586.885 778.406 592.124C775.547 594.747 773.012 597.292 770.452 599.53C767.908 601.754 765.26 603.754 762.132 604.861C752.361 608.318 740.79 605.783 732.388 597.3C731.983 596.891 731.673 596.407 731.489 595.862C724.914 576.341 712.315 538.934 705.189 517.779C686.439 524.094 654.185 534.957 636.564 540.892C630.467 547.293 628.907 555.548 631.276 562.243C631.857 563.886 633.157 565.796 635.146 568.07C637.12 570.328 639.697 572.872 642.464 575.887C648.002 581.924 654.31 589.877 658.249 601.583C661.215 610.396 660.445 619.583 653.548 627.876C646.802 635.986 634.758 643.035 615.669 649.465C596.573 655.897 582.72 657.566 572.448 655.191C561.965 652.768 555.778 645.941 552.798 637.1C548.853 625.397 549.063 615.25 549.821 607.09C550.2 603.015 550.713 599.431 550.919 596.439C551.126 593.427 551.007 591.121 550.474 589.457C548.309 582.692 542.073 577.064 533.347 575.657C514 582.173 478.321 594.19 457.833 601.091Z" fill="#ffffff" fill-opacity="0.333333" fill-rule="nonzero" opacity="1" stroke="none"/>
<path d="M805.322 382.518C786.811 388.752 776.096 395.416 770.803 401.773C765.649 407.963 765.134 413.987 767.446 420.856C770.93 431.21 776.418 438.136 781.658 443.847C784.281 446.706 786.825 449.241 789.063 451.801C791.288 454.346 793.288 456.994 794.394 460.121C797.851 469.892 795.317 481.462 786.834 489.865C786.425 490.27 785.94 490.581 785.395 490.764C767.131 496.916 732.227 508.672 712.339 515.371C719.372 536.253 731.651 572.71 738.299 592.448C744.7 598.546 752.955 600.106 759.65 597.737C761.293 597.155 763.203 595.856 765.477 593.867C767.735 591.893 770.279 589.316 773.294 586.549C779.331 581.01 787.284 574.703 798.99 570.763C807.803 567.798 816.991 568.568 825.283 575.465C833.393 582.21 840.443 594.254 846.872 613.343C853.304 632.44 855.019 646.309 852.648 656.589C850.229 667.079 843.364 673.271 834.519 676.252C822.816 680.197 812.67 679.987 804.51 679.229C800.435 678.85 796.851 678.337 793.858 678.131C790.846 677.924 788.54 678.044 786.877 678.575C780.111 680.741 774.483 686.976 773.077 695.703C778.877 712.923 789.472 744.382 795.651 762.727C799.579 761.404 804.309 759.811 807.194 758.839C861.605 740.513 970.426 703.861 1024.84 685.535C1034.86 682.157 1040.27 671.275 1036.89 661.244C1017.59 603.947 979.577 491.087 959.695 432.058C939.807 438.757 904.903 450.513 886.639 456.664C886.093 456.848 885.52 456.894 884.949 456.819C873.112 455.261 864.094 447.583 860.934 437.71C859.922 434.547 859.914 431.229 860.146 427.859C860.379 424.468 860.871 420.91 861.23 417.046C861.947 409.327 862.126 400.494 858.636 390.142C856.31 383.241 852.23 378.784 844.418 376.978C836.374 375.119 823.84 376.281 805.322 382.518Z" fill="#ffffff" fill-opacity="0.333333" fill-rule="nonzero" opacity="1" stroke="none"/>
</g>
</g>
</svg>
